<?xml version="1.0" standalone="no"?>
<!DOCTYPE svg PUBLIC "-//W3C//DTD SVG 20010904//EN"
 "http://www.w3.org/TR/2001/REC-SVG-20010904/DTD/svg10.dtd">
<svg version="1.0" xmlns="http://www.w3.org/2000/svg"
 width="480.000000pt" height="480.000000pt" viewBox="0 0 480.000000 480.000000"
 preserveAspectRatio="xMidYMid meet">
<metadata>
Created by potrace 1.11, written by Peter Selinger 2001-2013
</metadata>
<g transform="translate(0.000000,480.000000) scale(0.100000,-0.100000)"
fill="#000000" stroke="none">
<path d="M1 4473 c0 -248 2 -329 12 -335 9 -6 9 -8 0 -8 -9 0 -13 -23 -13 -79
0 -82 6 -111 21 -111 13 0 11 74 -3 88 -9 9 -7 12 10 12 19 0 22 -6 24 -42 2
-66 -1 -80 -25 -118 -18 -28 -23 -52 -25 -125 l-3 -90 20 24 c10 14 24 43 31
65 l12 41 25 -48 c13 -26 30 -50 38 -54 9 -3 15 -18 15 -37 0 -43 36 -116 58
-117 10 0 12 -3 4 -6 -6 -2 -12 -11 -12 -19 0 -8 -4 -22 -9 -32 -14 -25 -48
-103 -60 -134 -6 -16 -14 -28 -18 -28 -5 0 -9 -21 -10 -46 -1 -26 -6 -50 -11
-53 -5 -3 -12 -22 -16 -41 -3 -19 -13 -48 -21 -64 -8 -15 -15 -34 -15 -41 0
-7 -7 -18 -15 -25 -11 -9 -15 -32 -15 -78 0 -36 3 -62 7 -59 7 8 70 168 83
212 39 139 52 181 59 190 5 5 16 35 26 65 10 30 23 62 30 70 17 21 33 68 40
118 5 32 3 48 -9 60 -14 16 -14 22 0 62 20 59 27 64 42 32 9 -19 9 -23 0 -14
-10 10 -15 7 -24 -10 -16 -31 7 -81 34 -71 15 6 15 4 -2 -15 -11 -12 -17 -22
-15 -23 2 0 24 -2 48 -4 46 -3 81 -24 45 -27 -10 0 -25 -1 -31 -1 -7 1 -13 -4
-13 -9 0 -6 9 -8 19 -5 10 2 25 1 32 -4 11 -7 10 -9 -3 -9 -10 0 -18 -5 -18
-11 0 -7 14 -10 35 -7 25 3 35 0 35 -9 0 -8 -6 -16 -14 -19 -8 -3 -11 -15 -8
-30 6 -30 -13 -32 -23 -1 -6 19 -8 19 -12 5 -3 -11 -14 -18 -29 -18 -16 0 -24
-6 -24 -17 0 -13 3 -14 12 -5 15 15 54 16 63 2 3 -5 19 -10 35 -10 16 0 32 -4
35 -10 3 -5 11 -10 16 -10 14 0 0 50 -22 83 -11 15 -17 32 -14 37 8 14 115 13
115 -1 0 -6 8 -8 19 -4 13 4 21 1 23 -9 2 -11 9 -9 33 9 16 13 26 27 22 31 -3
4 -45 6 -92 5 -58 -1 -85 2 -80 9 3 5 11 10 17 10 6 0 17 8 24 18 9 10 17 13
21 7 5 -5 17 -15 29 -21 18 -11 22 -8 31 17 9 23 17 29 42 29 17 0 31 5 31 12
0 6 12 1 26 -13 l26 -24 -7 35 c-8 36 -20 50 -44 50 -8 0 -11 -6 -6 -17 5 -14
4 -15 -6 -6 -7 7 -14 23 -16 35 -2 13 -9 36 -15 52 -9 23 -9 31 0 34 18 6 15
20 -5 26 -11 3 -7 4 7 3 23 -2 25 -5 22 -48 -4 -53 6 -64 46 -54 l27 7 -29 23
c-17 14 -26 28 -21 35 10 16 129 -106 143 -147 11 -32 5 -48 -14 -35 -5 4 -18
24 -29 45 -11 21 -29 46 -39 55 -18 16 -19 16 -12 -3 4 -11 9 -29 10 -40 2
-11 6 -31 11 -44 6 -20 5 -23 -10 -17 -13 5 -16 2 -11 -10 3 -9 9 -28 12 -42
4 -15 31 -76 60 -137 31 -62 49 -112 43 -114 -6 -2 -1 -13 11 -25 18 -20 45
-86 34 -86 -9 0 -44 35 -44 45 0 6 -7 20 -16 31 -15 18 -15 18 -5 -3 6 -12 8
-28 5 -36 -3 -8 -1 -18 5 -21 15 -10 2 -36 -18 -36 -10 0 -20 -3 -23 -6 -11
-11 4 -42 23 -47 10 -3 19 -11 19 -17 0 -7 -7 -10 -16 -6 -9 3 -25 -1 -37 -10
l-22 -16 22 5 c23 5 41 -18 20 -27 -8 -3 -4 -11 11 -24 27 -25 28 -32 2 -32
-28 0 -25 -18 5 -32 31 -14 31 -16 2 -52 -15 -18 -28 -26 -36 -22 -9 6 -8 12
6 23 17 13 16 14 -9 8 -25 -5 -28 -2 -28 20 0 17 -6 25 -17 26 -16 0 -16 1 -2
11 15 10 15 13 0 40 -9 15 -20 28 -24 28 -13 0 -37 -67 -31 -84 4 -10 -1 -19
-16 -24 l-21 -8 20 -18 c25 -22 27 -46 6 -46 -8 0 -15 -3 -16 -7 0 -5 -2 -24
-4 -44 -1 -20 -7 -45 -13 -56 -9 -15 -7 -22 10 -32 15 -9 17 -16 9 -24 -16
-16 -14 -37 4 -31 20 8 19 -6 -2 -21 -15 -11 -15 -15 -3 -30 13 -16 15 -16 28
2 13 17 14 16 7 -7 -4 -14 -14 -29 -23 -34 -11 -7 -12 -10 -1 -16 10 -7 10
-12 -1 -25 -12 -15 -12 -19 2 -29 20 -15 10 -34 -20 -39 -12 -2 -24 -6 -28 -9
-3 -4 -15 -2 -25 5 -15 9 -24 9 -40 -1 -13 -8 -38 -11 -67 -8 -43 5 -44 4 -19
-6 34 -15 34 -24 1 -32 -23 -6 -26 -11 -20 -36 7 -36 0 -38 -25 -8 -21 24 -26
68 -7 68 6 0 4 6 -6 13 -15 11 -16 18 -5 62 6 28 16 54 20 59 12 14 11 36 -1
36 -6 0 -13 -13 -16 -30 -4 -16 -10 -27 -15 -24 -14 8 -10 40 6 54 16 13 20
30 8 30 -5 -1 -19 -10 -32 -21 -21 -17 -23 -23 -13 -39 6 -11 8 -21 3 -24 -11
-7 -34 20 -27 32 6 11 -17 34 -30 31 -19 -3 -34 1 -34 11 0 5 6 7 14 4 24 -9
28 14 6 36 l-21 21 20 6 c41 10 10 21 -51 17 -56 -3 -63 -5 -62 -24 0 -13 -4
-19 -13 -16 -7 3 -13 1 -13 -3 0 -5 6 -11 13 -14 20 -7 3 -17 -21 -10 -27 7
-28 18 -2 45 13 14 16 24 9 28 -13 9 3 47 70 160 63 107 108 196 117 235 8 34
94 203 125 247 20 28 52 37 64 18 3 -5 1 -10 -4 -10 -6 0 -11 -7 -11 -15 0 -8
6 -12 14 -9 11 4 13 0 9 -15 -6 -23 -19 -28 -26 -8 -2 6 -11 -2 -20 -19 -9
-17 -13 -34 -10 -38 12 -12 33 -6 33 10 0 8 5 12 10 9 6 -4 22 -9 37 -11 15
-3 33 -10 40 -16 10 -8 13 -6 13 10 0 18 18 32 42 32 6 0 6 -6 -2 -15 -13 -15
-5 -55 12 -55 5 0 8 7 4 15 -4 10 1 15 14 15 11 0 29 5 39 12 15 9 26 9 44 1
30 -14 35 -6 33 47 -1 31 -4 35 -27 32 -14 -2 -45 4 -70 12 -24 8 -62 18 -84
21 -65 11 -77 16 -71 31 6 16 -19 20 -29 4 -8 -13 -51 -13 -77 1 -18 10 -20 9
-15 -5 5 -12 0 -16 -22 -16 -18 0 -31 -6 -35 -16 -6 -15 0 -16 39 -11 25 4 45
4 45 0 0 -3 -11 -16 -25 -29 -24 -22 -27 -23 -63 -9 -20 8 -46 13 -56 11 -11
-1 -37 1 -58 4 -37 7 -38 6 -23 -10 20 -22 71 -33 95 -20 13 7 21 7 25 0 3 -5
15 -10 26 -10 23 0 23 -4 6 -38 -29 -57 -58 -120 -87 -192 -17 -41 -39 -84
-49 -95 -10 -11 -23 -35 -30 -52 -7 -18 -24 -45 -37 -60 -13 -16 -33 -48 -45
-72 -20 -42 -21 -43 -60 -38 -22 3 -37 1 -33 -4 3 -5 -2 -9 -11 -9 -11 0 -15
5 -12 15 4 8 2 17 -3 20 -7 4 -10 -499 -10 -1374 l0 -1381 1761 0 c968 0 1758
3 1756 7 -3 5 -8 62 -11 128 -16 284 -56 433 -191 730 -102 224 -142 301 -151
293 -2 -2 12 -48 31 -102 37 -105 42 -135 23 -137 -7 -1 -2 -4 11 -8 20 -5 31
-25 63 -115 21 -60 40 -116 41 -125 2 -9 18 -60 36 -115 17 -54 29 -107 26
-117 -4 -11 -2 -19 5 -19 6 0 10 -6 9 -13 -1 -6 8 -34 20 -62 12 -27 20 -57
18 -67 -3 -10 -1 -18 5 -18 6 0 8 -7 4 -15 -3 -8 -1 -15 4 -15 6 0 10 -5 10
-11 0 -5 -5 -7 -11 -3 -7 4 -9 -2 -7 -17 2 -20 -4 -26 -37 -37 -125 -43 -195
-55 -212 -38 -2 2 -6 24 -9 47 -6 65 -23 146 -46 214 -11 33 -19 73 -19 88 1
16 -4 47 -10 70 -7 23 -13 51 -15 62 -3 27 -33 144 -44 175 -21 59 -22 88 -3
93 15 4 15 5 -3 6 -17 1 -23 13 -38 79 -10 42 -24 95 -31 117 -7 22 -18 60
-25 84 l-12 44 -23 -66 c-29 -83 -52 -120 -109 -176 -42 -42 -45 -48 -40 -83
5 -25 3 -38 -5 -38 -8 0 -7 -7 3 -23 7 -12 17 -49 20 -82 4 -33 8 -76 10 -95
2 -19 9 -66 15 -105 6 -38 13 -86 16 -105 12 -81 35 -298 35 -332 0 -24 -5
-38 -12 -38 -62 -3 -123 -12 -128 -20 -9 -14 -90 -25 -90 -11 0 6 16 11 37 11
20 0 33 3 29 7 -10 10 -137 12 -130 2 3 -5 0 -9 -6 -9 -6 0 -8 10 -4 25 4 15
2 25 -5 25 -15 0 -14 47 0 52 8 3 9 11 3 23 -5 11 -9 98 -9 192 0 95 -1 173
-1 173 -1 0 -26 5 -55 10 -62 12 -109 29 -109 40 0 5 12 2 28 -5 31 -15 160
-35 231 -35 71 0 86 16 88 94 1 36 4 69 7 74 6 11 -1 163 -9 170 -11 11 -65
-29 -130 -96 -41 -42 -61 -69 -53 -73 6 -4 1 -7 -13 -8 -13 0 -41 -3 -61 -7
-57 -9 -83 1 -102 41 -13 27 -15 43 -7 72 52 198 52 198 -23 231 -88 40 -236
190 -222 227 2 7 -11 44 -29 82 -58 116 -115 343 -86 343 4 0 11 27 14 60 3
34 13 73 22 87 14 21 17 41 12 97 -3 49 -1 79 8 96 12 23 13 22 25 -33 7 -37
16 -57 26 -57 8 0 14 -8 14 -17 0 -24 48 -177 76 -243 12 -30 30 -78 39 -106
18 -58 44 -100 45 -73 0 21 -49 177 -95 304 -21 55 -47 132 -59 170 -12 39
-27 79 -33 90 -6 11 -14 35 -18 52 -11 52 11 40 40 -22 24 -49 68 -95 92 -95
6 0 18 8 27 19 14 15 15 26 7 62 -5 24 -12 73 -16 109 -5 43 -15 78 -32 103
-19 31 -22 41 -12 53 9 11 8 14 -5 14 -10 0 -16 9 -16 25 0 14 4 25 9 25 6 0
6 12 1 30 -5 17 -6 30 -3 30 3 0 -6 15 -20 33 -29 39 -37 117 -18 177 6 19 11
56 11 82 0 60 7 77 36 89 13 4 24 16 24 26 0 10 12 41 25 68 14 28 25 57 25
66 0 24 55 105 89 130 35 26 27 39 -24 39 -45 0 -105 -32 -156 -83 -44 -45
-60 -76 -94 -187 -76 -247 -80 -257 -111 -283 -17 -15 -37 -40 -44 -57 -14
-33 -40 -39 -60 -15 -9 11 -11 36 -7 83 4 43 2 59 -3 45 -11 -28 -40 -56 -76
-76 -36 -19 -129 -47 -158 -47 -26 0 -104 -35 -128 -57 -32 -28 -22 7 35 128
66 139 72 155 55 142 -63 -49 -227 -147 -245 -145 -13 1 -23 -3 -23 -8 0 -11
-22 -9 -31 3 -6 9 -66 -47 -116 -109 -45 -56 -73 -84 -82 -84 -5 0 -16 -15
-25 -34 -8 -18 -22 -38 -30 -45 -7 -6 -21 -33 -31 -59 -21 -59 -45 -109 -67
-143 -70 -105 -111 -311 -108 -529 6 -317 6 -315 -23 -353 -15 -20 -32 -41
-39 -49 -23 -24 -124 -152 -143 -182 l-19 -28 -18 22 c-10 12 -18 26 -18 30 0
9 149 189 173 209 10 7 17 18 17 23 0 5 9 17 20 26 12 11 22 35 26 65 7 51 -4
62 -29 26 -8 -11 -39 -46 -69 -77 -29 -31 -80 -87 -112 -125 -47 -53 -61 -65
-72 -56 -8 6 -14 17 -14 23 0 10 108 131 246 274 l42 43 -4 101 c-2 56 -6 103
-9 106 -9 9 -5 42 5 42 6 0 10 5 10 10 0 18 -16 10 -91 -46 -143 -107 -146
-95 -6 23 51 42 94 78 96 80 3 2 8 26 11 54 5 39 4 49 -7 45 -7 -3 -66 -45
-130 -94 -200 -150 -241 -178 -213 -148 14 16 95 80 180 144 157 117 212 162
155 127 -25 -15 -141 -99 -364 -264 -25 -19 -40 -27 -32 -18 15 19 402 312
419 318 6 2 31 60 55 129 25 69 50 137 56 153 6 15 9 27 7 27 -8 0 -106 -47
-118 -57 -7 -5 -61 -33 -119 -60 -96 -46 -105 -48 -95 -27 7 15 39 36 90 59
43 20 114 56 158 81 89 49 97 52 77 27 -12 -14 -12 -16 0 -12 8 3 19 14 25 25
6 10 14 21 17 24 3 3 14 21 24 40 10 19 21 37 24 40 15 11 81 109 81 119 0 6
4 10 9 9 5 -2 47 36 94 83 47 47 117 107 156 132 l71 47 -32 30 c-17 17 -27
30 -23 30 4 0 2 7 -5 15 -16 19 3 20 22 2 7 -8 19 -12 26 -9 7 2 11 0 10 -5
-2 -5 4 -16 12 -24 13 -15 18 -15 47 -1 18 9 33 22 33 30 0 7 7 20 15 28 9 10
13 24 9 40 -4 17 3 37 25 71 21 32 30 55 27 70 -5 19 8 56 50 133 9 17 20 24
36 22 18 -1 20 0 8 7 -30 20 2 24 38 6 20 -11 40 -21 45 -23 4 -2 7 1 7 6 0 5
-15 17 -34 26 -18 8 -39 24 -47 33 -11 15 -11 16 1 6 8 -7 22 -13 32 -13 21 0
68 -45 68 -66 0 -8 7 -17 15 -20 8 -4 15 -12 15 -20 0 -8 5 -14 10 -14 6 0 10
-8 10 -17 0 -10 7 -31 15 -47 8 -15 15 -39 15 -52 0 -12 5 -26 10 -29 19 -12
10 42 -16 99 -14 31 -23 60 -19 66 3 5 0 10 -8 10 -14 0 -29 22 -31 45 -1 6
-13 24 -29 40 -15 16 -27 36 -27 43 0 7 -5 10 -10 7 -15 -9 -40 13 -40 35 0 9
-9 25 -20 35 -25 22 -26 36 -2 28 14 -5 15 -3 5 8 -15 16 -17 33 -3 24 6 -3
10 -1 10 4 0 6 -4 11 -10 11 -5 0 -10 7 -10 15 0 9 6 12 15 9 8 -4 15 -12 15
-19 0 -13 21 -25 46 -25 8 0 14 6 14 14 0 17 45 27 59 13 6 -6 11 -7 11 -2 0
4 9 0 19 -9 22 -20 46 -12 37 11 -4 10 -2 13 6 10 7 -3 33 -13 57 -23 l44 -17
24 27 c13 16 22 33 21 38 -6 18 -87 58 -116 58 -15 0 -42 -4 -60 -9 -27 -8
-34 -7 -42 9 -7 14 -6 23 6 34 22 23 51 20 144 -13 44 -15 83 -25 86 -20 9 15
94 48 109 43 8 -4 15 -2 15 4 0 5 -15 9 -32 8 -25 0 -34 4 -36 18 -3 14 0 17
13 12 42 -16 76 43 44 77 -9 10 -20 14 -23 9 -3 -5 -20 -9 -38 -8 -38 2 -52
26 -14 26 18 0 24 4 20 15 -5 12 0 12 27 5 18 -5 36 -15 40 -22 4 -7 12 -9 16
-4 4 4 0 13 -10 20 -26 20 -21 26 23 22 22 -2 40 -1 40 3 0 12 -45 35 -65 33
-18 -2 -18 -1 4 18 13 11 29 19 35 17 10 -3 38 -52 61 -108 6 -14 18 -24 30
-24 11 0 31 -6 43 -13 14 -8 35 -11 50 -8 20 5 23 4 12 -4 -8 -5 -12 -10 -7
-11 4 -1 12 -3 17 -4 6 -1 17 -3 26 -4 8 0 13 -5 10 -10 -3 -5 3 -11 14 -14
11 -3 20 -1 20 4 0 4 7 6 15 2 9 -3 15 -13 13 -22 -2 -9 6 -24 17 -33 17 -15
18 -17 3 -18 -9 0 -29 10 -45 23 -51 43 -183 101 -183 82 0 -18 26 -42 41 -38
12 3 21 -1 25 -12 5 -13 9 -14 15 -4 12 20 79 -14 79 -41 0 -11 -7 -20 -15
-20 -8 0 -15 -4 -15 -9 0 -5 -2 -15 -5 -23 -3 -7 1 -22 10 -33 11 -14 13 -15
9 -4 -8 26 17 35 33 13 8 -10 22 -18 31 -16 12 2 13 0 4 -6 -10 -7 -9 -15 4
-41 15 -30 15 -33 -2 -45 -16 -12 -15 -14 9 -20 15 -3 27 -13 27 -22 0 -11 -5
-14 -16 -10 -12 4 -14 1 -9 -13 5 -16 0 -20 -22 -23 -22 -2 -28 -8 -28 -27 0
-22 4 -25 44 -25 42 -1 44 -2 61 -46 14 -35 27 -49 61 -67 55 -28 63 -28 47
-3 -10 15 -10 24 -1 39 8 12 8 22 1 29 -5 5 -6 12 -1 15 5 3 14 -3 21 -14 10
-15 10 -19 0 -19 -8 -1 -5 -7 6 -15 11 -8 17 -18 13 -21 -3 -4 0 -13 8 -21 8
-8 18 -20 22 -27 5 -7 28 -26 53 -43 41 -28 46 -35 45 -67 -1 -20 -4 -38 -7
-41 -3 -3 -34 26 -69 64 -61 66 -131 112 -143 92 -6 -9 41 -46 59 -46 6 0 20
-7 31 -15 19 -13 23 -31 32 -125 22 -225 24 -285 10 -285 -22 1 -99 39 -130
65 -36 30 -58 20 -58 -26 0 -26 3 -29 35 -29 38 0 44 -13 21 -46 -10 -14 -17
-63 -22 -147 -7 -137 -4 -150 46 -169 77 -29 252 -77 265 -72 8 3 24 21 35 39
17 28 20 49 20 147 0 124 -2 130 -53 142 -16 4 -40 18 -53 33 -20 22 -23 31
-16 67 9 49 8 114 -1 221 -7 76 -7 79 9 58 18 -25 42 -28 106 -13 24 5 65 12
92 16 36 4 50 10 53 25 6 23 6 23 43 4 22 -12 46 -14 100 -9 91 9 109 23 116
92 8 93 33 123 85 107 28 -9 38 -42 40 -133 l1 -79 36 -13 c38 -13 148 -110
197 -173 21 -26 36 -37 48 -33 15 4 18 0 14 -15 -3 -10 3 -29 14 -42 l18 -22
1 52 c0 28 -5 55 -11 59 -6 3 -7 9 -2 13 5 3 6 40 2 81 -3 45 -6 58 -7 34 -2
-39 -24 -75 -35 -57 -3 4 -5 55 -5 113 0 113 -9 266 -22 343 -6 38 -4 47 8 47
8 0 20 -7 27 -17 13 -18 35 -10 35 13 0 10 13 14 49 14 31 0 53 5 61 15 7 8
20 15 29 15 14 0 14 -2 1 -10 -11 -8 -1 -10 35 -8 l50 3 3 40 c2 22 -6 78 -17
125 -17 68 -20 75 -16 34 7 -68 -10 -84 -47 -45 -24 25 -46 37 -101 55 -33 11
-12 31 54 52 58 19 65 20 76 5 11 -14 12 -13 13 7 0 14 9 27 26 34 24 11 28
10 46 -15 11 -15 25 -27 31 -27 6 0 1 10 -11 23 -31 32 -28 37 21 37 l42 0 1
-46 c0 -27 7 -51 17 -61 15 -15 16 -13 11 23 -12 97 -17 89 61 89 124 0 211
-16 315 -57 l25 -10 -22 -9 c-23 -8 -33 -49 -13 -49 6 0 10 7 10 15 0 28 31
30 51 4 15 -20 19 -21 19 -6 0 24 17 21 45 -8 32 -31 32 -12 1 22 -19 20 -23
31 -15 45 7 13 6 18 -2 18 -7 0 -9 3 -6 7 11 10 45 -27 41 -45 -2 -9 8 -30 22
-47 14 -17 24 -23 23 -15 -3 29 1 39 14 35 7 -3 13 4 13 20 2 21 -1 25 -18 19
-16 -5 -19 -2 -16 18 2 12 11 29 20 36 24 18 26 202 2 202 -10 0 -14 7 -12 18
2 9 9 16 16 15 9 -2 12 29 11 112 0 111 -7 134 -28 98 -6 -10 -11 -13 -11 -6
0 24 12 42 26 36 8 -3 14 -1 14 5 0 6 -4 12 -9 14 -14 5 -24 48 -11 48 6 0 8
5 5 10 -3 6 -1 10 4 10 8 0 11 85 11 265 l0 265 -1615 0 -1615 0 -15 -24 c-9
-13 -25 -26 -37 -29 -18 -5 -17 -2 8 24 l28 29 -448 0 c-306 0 -454 -3 -468
-11 -15 -8 -19 -8 -14 0 5 7 -4 11 -23 11 -28 0 -31 -3 -31 -31 0 -19 -4 -28
-11 -23 -6 3 -9 17 -6 30 l4 24 -278 0 -278 0 0 -327z m3204 307 c3 -5 1 -10
-4 -10 -6 0 -11 5 -11 10 0 6 2 10 4 10 3 0 8 -4 11 -10z m-390 -50 c3 -5 1
-10 -4 -10 -6 0 -11 5 -11 10 0 6 2 10 4 10 3 0 8 -4 11 -10z m415 -16 c0 -24
-11 -41 -85 -126 -8 -10 -15 -28 -15 -39 0 -17 5 -20 21 -16 16 4 18 3 8 -9
-13 -16 -45 -19 -54 -4 -4 6 -1 17 5 25 7 8 10 22 6 30 -3 9 3 20 14 27 11 7
20 21 20 30 0 10 5 18 11 18 5 0 8 4 5 9 -8 12 3 41 15 41 4 0 5 -8 2 -17 -6
-16 -5 -16 10 -4 9 7 17 24 17 37 0 13 5 24 10 24 6 0 10 -12 10 -26z m36 -1
c-10 -10 -19 5 -10 18 6 11 8 11 12 0 2 -7 1 -15 -2 -18z m435 -12 c-6 -10
-18 -18 -28 -17 -27 4 -27 25 1 32 14 3 26 11 27 18 0 8 2 7 5 -1 3 -7 1 -21
-5 -32z m389 29 c0 -5 -12 -10 -27 -9 -25 0 -26 1 -8 9 27 12 35 12 35 0z m51
-3 c-1 -4 -1 -14 -1 -23 0 -11 -6 -14 -22 -8 -33 10 -35 14 -13 30 19 14 37
15 36 1z m-1874 -13 c-3 -3 -12 -4 -19 -1 -8 3 -5 6 6 6 11 1 17 -2 13 -5z
m33 -4 c0 -5 -2 -10 -4 -10 -3 0 -8 5 -11 10 -3 6 -1 10 4 10 6 0 11 -4 11
-10z m-810 -30 c-6 -12 -14 -20 -17 -17 -2 3 1 14 8 26 17 26 24 19 9 -9z
m898 5 c-3 -3 -9 2 -12 12 -6 14 -5 15 5 6 7 -7 10 -15 7 -18z m1108 4 c3 -22
5 -23 12 -12 5 8 13 9 22 3 13 -8 13 -10 0 -10 -19 0 -50 -35 -50 -55 0 -17
-16 -20 -25 -5 -3 6 1 18 11 27 15 16 15 17 -2 24 -18 7 -18 8 -1 8 10 1 15 6
12 11 -8 12 4 34 14 25 3 -4 7 -11 7 -16z m-2989 -26 c-9 -9 -19 -14 -23 -11
-10 10 6 28 24 28 15 0 15 -1 -1 -17z m1948 -13 c-3 -5 -11 -10 -16 -10 -6 0
-7 5 -4 10 3 6 11 10 16 10 6 0 7 -4 4 -10z m440 -35 c-22 -19 -50 -44 -63
-55 -26 -23 -32 -25 -32 -7 0 10 114 95 130 96 3 0 -13 -15 -35 -34z m375 31
c0 -3 -4 -8 -10 -11 -5 -3 -10 -1 -10 4 0 6 5 11 10 11 6 0 10 -2 10 -4z m265
-14 c-3 -13 4 -28 21 -45 31 -31 29 -33 -13 -12 -25 12 -29 19 -25 45 2 16 9
30 14 30 5 0 7 -8 3 -18z m-746 -33 c-16 -9 -29 -3 -29 16 0 19 23 25 34 7 5
-9 4 -17 -5 -23z m271 26 c-7 -8 -17 -15 -22 -15 -6 0 -5 7 2 15 7 8 17 15 22
15 6 0 5 -7 -2 -15z m627 0 c-4 -8 -2 -17 4 -20 5 -4 9 -12 8 -18 -5 -39 2
-56 19 -51 13 4 12 1 -5 -14 -13 -11 -23 -27 -23 -36 0 -9 -7 -16 -16 -16 -12
0 -15 6 -10 23 4 12 7 50 6 85 -1 41 3 62 11 62 6 0 9 -7 6 -15z m-2307 1 c0
-3 -4 -8 -10 -11 -5 -3 -10 -1 -10 4 0 6 5 11 10 11 6 0 10 -2 10 -4z m1245
-6 c3 -5 1 -10 -4 -10 -6 0 -11 5 -11 10 0 6 2 10 4 10 3 0 8 -4 11 -10z m230
0 c3 -5 1 -10 -4 -10 -6 0 -11 5 -11 10 0 6 2 10 4 10 3 0 8 -4 11 -10z m1135
-9 c0 -5 -7 -12 -16 -15 -14 -5 -15 -4 -4 9 14 17 20 19 20 6z m-2370 -11 c0
-5 -5 -10 -11 -10 -5 0 -7 5 -4 10 3 6 8 10 11 10 2 0 4 -4 4 -10z m2205 0
c-4 -7 3 -8 21 -4 19 5 25 4 20 -5 -10 -16 -51 -14 -66 4 -10 13 -9 15 9 15
13 0 19 -4 16 -10z m-805 -31 c0 -5 -4 -9 -10 -9 -5 0 -10 7 -10 16 0 8 5 12
10 9 6 -3 10 -10 10 -16z m777 2 c6 -23 37 -33 53 -17 10 8 11 7 8 -4 -3 -8
-11 -15 -19 -15 -23 -1 -59 -25 -59 -38 0 -7 -7 -22 -15 -33 -14 -18 -14 -17
-5 9 13 38 13 42 -5 27 -20 -16 -32 -5 -16 14 7 8 10 20 6 26 -3 5 5 14 19 20
14 5 26 12 26 16 0 3 -7 3 -16 0 -8 -3 -12 -2 -9 4 10 16 26 11 32 -9z m-3082
-9 c-3 -3 -11 0 -18 7 -9 10 -8 11 6 5 10 -3 15 -9 12 -12z m895 14 c0 -3 -4
-8 -10 -11 -5 -3 -10 -1 -10 4 0 6 5 11 10 11 6 0 10 -2 10 -4z m1400 -42 c0
-17 93 -100 98 -86 2 7 10 12 17 12 10 0 13 -12 11 -45 -2 -26 1 -46 8 -49 7
-3 6 -8 -4 -15 -18 -12 -42 12 -34 34 8 19 -74 95 -102 95 -12 0 -26 5 -30 11
-5 9 1 10 22 5 l29 -8 -28 29 c-15 16 -24 32 -20 36 3 4 1 7 -6 7 -7 0 -10 4
-6 10 7 11 45 -19 45 -36z m-2620 31 c0 -23 -27 -120 -45 -160 -12 -27 -31
-69 -41 -92 -10 -24 -21 -43 -25 -43 -4 0 -15 -3 -24 -7 -16 -6 -16 -4 0 21
16 24 16 29 4 38 -11 8 -11 9 3 4 25 -8 44 30 89 172 12 39 26 72 31 72 4 0 8
-2 8 -5z m650 -5 c0 -5 -4 -10 -10 -10 -5 0 -10 5 -10 10 0 6 5 10 10 10 6 0
10 -4 10 -10z m2043 -33 c-15 -33 -33 -49 -33 -29 0 11 41 75 45 70 2 -2 -3
-21 -12 -41z m817 33 c0 -5 -7 -7 -15 -4 -8 4 -15 8 -15 10 0 2 7 4 15 4 8 0
15 -4 15 -10z m-2493 -37 c-3 -10 -5 -4 -5 12 0 17 2 24 5 18 2 -7 2 -21 0
-30z m193 23 c0 -2 -7 -9 -15 -16 -12 -10 -15 -10 -15 4 0 9 7 16 15 16 8 0
15 -2 15 -4z m1353 -3 c-7 -2 -21 -2 -30 0 -10 3 -4 5 12 5 17 0 24 -2 18 -5z
m-308 -53 c38 -54 81 -101 128 -138 21 -17 33 -33 28 -36 -5 -4 -21 5 -35 19
-14 14 -32 25 -41 25 -8 0 -15 6 -15 13 0 14 -51 67 -64 67 -4 0 -28 14 -54
32 -59 39 -56 37 -50 43 3 3 23 -8 46 -25 23 -16 44 -30 47 -30 3 0 -4 18 -16
41 -25 50 -12 44 26 -11z m-2145 36 c0 -3 -4 -8 -10 -11 -5 -3 -10 -1 -10 4 0
6 5 11 10 11 6 0 10 -2 10 -4z m250 -6 c0 -5 -2 -10 -4 -10 -3 0 -8 5 -11 10
-3 6 -1 10 4 10 6 0 11 -4 11 -10z m2890 -16 c0 -2 -7 -4 -15 -4 -8 0 -15 4
-15 10 0 5 7 7 15 4 8 -4 15 -8 15 -10z m193 -1 c-7 -2 -19 -2 -25 0 -7 3 -2
5 12 5 14 0 19 -2 13 -5z m-2197 -19 c-3 -9 -6 -22 -6 -30 0 -8 -4 -14 -9 -14
-4 0 -8 13 -7 30 1 18 6 30 15 30 8 0 11 -6 7 -16z m-1141 -3 c-3 -6 3 -14 12
-20 10 -5 15 -13 11 -17 -10 -9 -38 15 -38 32 0 8 5 14 11 14 5 0 8 -4 4 -9z
m925 -31 c-16 -30 -22 -19 -7 13 6 14 13 22 15 17 2 -5 -2 -19 -8 -30z m915
30 l20 -9 -20 0 c-11 0 -27 4 -35 9 -13 9 -13 10 0 9 8 0 24 -4 35 -9z m76
-47 c-9 -7 -20 -12 -26 -13 -5 0 -4 4 4 9 11 7 9 10 -8 16 -11 3 -21 10 -21
14 0 4 15 3 34 -3 30 -9 32 -12 17 -23z m1300 -8 c6 -29 7 -29 14 -7 5 16 13
22 26 19 10 -3 20 0 22 6 2 8 6 7 11 -1 4 -7 -6 -17 -28 -26 -20 -8 -34 -21
-33 -28 2 -7 2 -10 0 -6 -3 5 -14 6 -26 3 -19 -5 -22 -2 -21 27 1 46 2 48 17
46 6 -2 15 -16 18 -33z m-656 -15 c14 -16 14 -18 -2 -31 -11 -9 -14 -10 -9 -2
4 8 -4 22 -21 37 -25 22 -26 24 -6 19 12 -3 29 -13 38 -23z m793 23 c-10 -2
-26 -2 -35 0 -10 3 -2 5 17 5 19 0 27 -2 18 -5z m-3787 -30 c13 -16 12 -17 -3
-4 -10 7 -18 15 -18 17 0 8 8 3 21 -13z m1259 -26 c0 -16 -18 3 -23 25 -6 22
-5 22 8 4 8 -11 15 -24 15 -29z m-283 11 c-3 -8 -6 -5 -6 6 -1 11 2 17 5 13 3
-3 4 -12 1 -19z m528 -37 c0 -17 -9 -32 -27 -43 -16 -10 -28 -25 -28 -33 0
-21 4 -19 38 15 17 17 36 30 44 29 8 0 5 -5 -7 -12 -19 -12 -39 -32 -74 -77
l-20 -25 -1 42 c0 32 5 45 19 52 21 12 44 68 31 76 -5 3 -14 -11 -20 -30 -6
-19 -15 -35 -20 -35 -7 0 13 71 27 93 9 15 39 -26 38 -52z m2265 34 c0 -8 -7
-15 -16 -15 -14 0 -14 3 -4 15 7 8 14 15 16 15 2 0 4 -7 4 -15z m-3303 -66
c-4 -57 -17 -79 -17 -27 0 20 -3 51 -7 69 -6 31 -5 33 10 20 12 -10 16 -26 14
-62z m357 37 c18 -39 20 -62 6 -71 -5 -3 -10 3 -10 15 0 11 -7 36 -14 55 -19
45 -3 46 18 1z m733 12 c-3 -8 -6 -5 -6 6 -1 11 2 17 5 13 3 -3 4 -12 1 -19z
m1986 16 c-19 -8 -4 -32 18 -27 28 8 23 -16 -6 -27 -14 -5 -25 -14 -25 -20 0
-5 -5 -10 -11 -10 -8 0 -8 62 0 88 1 1 9 2 19 1 9 0 12 -3 5 -5z m-2216 -36
c-3 -8 -6 -5 -6 6 -1 11 2 17 5 13 3 -3 4 -12 1 -19z m1213 -10 c0 -12 -6 -9
-26 13 -19 22 -19 22 4 8 12 -8 22 -17 22 -21z m1110 8 c0 -14 6 -31 14 -39
10 -9 14 -29 11 -58 -2 -24 -1 -56 2 -70 4 -22 10 -26 34 -24 15 1 35 8 44 15
8 7 18 11 20 8 9 -9 -24 -30 -57 -37 -17 -4 -34 -13 -36 -20 -3 -10 1 -12 14
-7 15 6 17 5 7 -5 -18 -18 -16 -34 2 -19 11 9 19 10 27 2 14 -14 1 -32 -23
-32 -12 0 -19 -7 -19 -19 0 -30 11 -52 23 -44 21 13 55 11 61 -3 3 -8 10 -14
16 -14 6 0 8 4 5 10 -3 6 1 7 9 4 14 -5 14 -8 1 -21 -12 -12 -24 -13 -64 -4
-50 11 -100 3 -127 -20 -12 -10 -17 -8 -28 7 -17 23 -13 29 10 16 24 -13 76 7
69 28 -3 8 -7 47 -10 85 -13 153 -13 153 -89 182 -27 10 -28 12 -8 12 13 1 37
-8 54 -20 30 -22 46 -20 32 3 -5 7 -9 15 -9 18 -1 3 -5 20 -9 37 -8 33 -2 53
15 53 5 0 9 -11 9 -24z m-2676 -1 c3 -8 1 -15 -4 -15 -6 0 -10 7 -10 15 0 8 2
15 4 15 2 0 6 -7 10 -15z m2766 2 c0 -2 -12 -14 -26 -28 -25 -22 -26 -23 -15
-2 9 18 19 26 39 32 1 1 2 0 2 -2z m-2500 -17 c0 -5 -2 -10 -4 -10 -3 0 -8 5
-11 10 -3 6 -1 10 4 10 6 0 11 -4 11 -10z m1946 -21 c0 -20 -5 -22 -29 -13 -8
3 -13 13 -10 23 6 25 39 16 39 -10z m-2471 3 c-3 -3 -11 0 -18 7 -9 10 -8 11
6 5 10 -3 15 -9 12 -12z m609 6 c-2 -4 0 -9 6 -13 5 -3 10 -20 10 -36 0 -18
-4 -28 -10 -24 -5 3 -10 15 -10 25 0 11 -9 24 -20 30 -27 14 -25 25 4 25 13 0
22 -3 20 -7z m1951 -14 c11 -8 14 -14 8 -14 -7 0 -15 5 -18 10 -3 6 -17 10
-31 10 -13 0 -24 5 -24 11 0 12 36 3 65 -17z m-149 -20 c2 -51 3 -54 22 -47
12 4 14 3 6 -6 -7 -8 -17 -8 -37 1 -21 10 -27 20 -27 44 0 53 34 61 36 8z
m341 30 c-3 -3 -12 -4 -19 -1 -8 3 -5 6 6 6 11 1 17 -2 13 -5z m-2952 -15 c11
-17 -1 -21 -15 -4 -8 9 -8 15 -2 15 6 0 14 -5 17 -11z m-535 -14 c8 -10 10
-19 4 -25 -5 -5 -14 1 -21 16 -12 27 -2 32 17 9z m798 -12 c21 -20 0 -15 -28
7 -20 16 -21 19 -5 13 11 -4 26 -13 33 -20z m182 17 c0 -5 5 -10 11 -10 5 0 7
6 3 13 -4 7 -3 9 2 4 5 -5 9 -12 9 -15 1 -11 36 -82 67 -135 29 -49 34 -67 20
-67 -5 0 -19 24 -33 53 -13 28 -27 54 -31 55 -5 2 -8 9 -8 16 0 7 -16 31 -36
54 -25 30 -31 42 -20 42 9 0 16 -4 16 -10z m1610 0 c0 -5 -2 -10 -4 -10 -3 0
-8 5 -11 10 -3 6 -1 10 4 10 6 0 11 -4 11 -10z m160 -5 c0 -8 -4 -15 -10 -15
-5 0 -10 7 -10 15 0 8 5 15 10 15 6 0 10 -7 10 -15z m1004 -24 c-7 -7 -34 21
-28 31 3 5 12 1 19 -9 7 -10 12 -20 9 -22z m-2678 1 c-10 -11 -14 -27 -10 -38
5 -18 5 -18 -10 0 -15 18 -14 22 6 43 25 27 39 22 14 -5z m2374 11 c-37 -14
-41 -17 -25 -24 13 -5 15 -8 5 -8 -8 0 -22 4 -30 9 -12 7 -7 12 20 24 19 8 44
15 55 15 11 0 0 -8 -25 -16z m-3124 -30 c-8 -9 -37 18 -30 28 3 5 12 2 21 -6
8 -9 13 -19 9 -22z m2764 28 c0 -6 -4 -13 -10 -16 -5 -3 -10 1 -10 9 0 9 5 16
10 16 6 0 10 -4 10 -9z m465 -5 c8 -7 11 -16 8 -20 -10 -10 -43 -7 -43 5 0 6
-9 8 -22 4 -16 -5 -20 -4 -13 3 6 5 19 12 30 15 11 3 21 5 23 6 2 0 10 -5 17
-13z m-2789 -33 c-10 -10 -19 5 -10 18 6 11 8 11 12 0 2 -7 1 -15 -2 -18z
m1784 17 c0 -5 34 -8 79 -7 60 1 77 -1 70 -10 -17 -20 -186 -3 -174 17 8 13
25 13 25 0z m830 -10 c0 -10 -73 -60 -88 -60 -6 0 -9 6 -6 13 3 8 -6 18 -21
25 -27 13 -34 32 -10 32 8 0 15 -5 15 -11 0 -6 9 -8 20 -4 14 5 20 2 20 -9 0
-19 5 -20 31 -5 11 6 18 17 15 24 -3 9 0 12 10 8 7 -3 14 -9 14 -13z m-2526 4
c9 -3 16 -10 16 -15 0 -14 -26 -10 -40 6 -13 16 -3 20 24 9z m1631 -4 c-3 -5
-11 -10 -16 -10 -6 0 -7 5 -4 10 3 6 11 10 16 10 6 0 7 -4 4 -10z m565 0 c8
-5 11 -10 5 -10 -5 0 -17 5 -25 10 -8 5 -10 10 -5 10 6 0 17 -5 25 -10z m781
0 c5 0 9 -4 9 -9 0 -4 -11 -6 -25 -3 -14 2 -25 9 -25 14 0 6 7 7 16 4 9 -3 20
-6 25 -6z m-3744 -6 c-3 -3 -12 -4 -19 -1 -8 3 -5 6 6 6 11 1 17 -2 13 -5z
m2160 -10 c-3 -3 -12 -4 -19 -1 -8 3 -5 6 6 6 11 1 17 -2 13 -5z m753 2 c0 -3
-4 -8 -10 -11 -5 -3 -10 -1 -10 4 0 6 5 11 10 11 6 0 10 -2 10 -4z m210 -6 c0
-5 -7 -10 -15 -10 -9 0 -14 -8 -12 -21 1 -16 -4 -23 -21 -25 -20 -3 -21 -1
-12 15 8 17 47 51 57 51 2 0 3 -4 3 -10z m340 0 c0 -5 -4 -10 -10 -10 -5 0
-10 5 -10 10 0 6 5 10 10 10 6 0 10 -4 10 -10z m-3189 -17 c13 -16 12 -17 -3
-4 -10 7 -18 15 -18 17 0 8 8 3 21 -13z m1014 -4 c4 -12 12 -18 21 -15 8 3 14
2 14 -3 0 -5 -10 -11 -22 -14 -24 -7 -38 7 -38 36 0 24 17 21 25 -4z m1710 10
c11 -17 -1 -21 -15 -4 -8 9 -8 15 -2 15 6 0 14 -5 17 -11z m-620 -11 c14 -6
25 -15 25 -20 0 -11 3 -11 -60 12 -49 17 -52 19 -23 20 18 0 44 -5 58 -12z
m663 -10 c-2 -6 -10 -14 -16 -16 -7 -2 -10 2 -6 12 7 18 28 22 22 4z m427 -6
c0 -18 -20 -15 -23 4 -3 10 1 15 10 12 7 -3 13 -10 13 -16z m-3185 -8 c0 -2
-7 -4 -15 -4 -8 0 -15 4 -15 10 0 5 7 7 15 4 8 -4 15 -8 15 -10z m1198 -9 c-1
-13 -6 -21 -10 -17 -5 5 -6 16 -2 25 9 24 14 21 12 -8z m742 -1 c0 -8 -4 -12
-10 -9 -5 3 -10 10 -10 16 0 5 5 9 10 9 6 0 10 -7 10 -16z m407 -11 c-7 -7
-57 8 -57 18 0 4 14 3 31 -3 16 -6 28 -12 26 -15z m163 15 c0 -10 -17 -9 -50
2 -21 7 -20 8 12 7 21 -1 38 -5 38 -9z m350 -8 c-8 -5 -18 -6 -24 -3 -5 4 -1
10 10 13 24 9 34 2 14 -10z m177 3 c3 -10 30 -42 61 -72 l55 -53 -34 7 c-72
14 -229 88 -216 102 3 2 22 -5 43 -15 87 -44 149 -70 154 -65 3 2 -3 9 -14 15
-10 5 -25 19 -35 30 -9 11 -27 31 -41 44 l-25 24 23 0 c13 0 25 -8 29 -17z
m-1392 -3 c-3 -5 -17 -10 -31 -10 -14 0 -22 4 -19 10 3 6 17 10 31 10 14 0 22
-4 19 -10z m102 4 c-3 -3 -12 -4 -19 -1 -8 3 -5 6 6 6 11 1 17 -2 13 -5z
m-1717 -14 c0 -5 -2 -10 -4 -10 -3 0 -8 5 -11 10 -3 6 -1 10 4 10 6 0 11 -4
11 -10z m545 -20 c8 -16 15 -35 15 -43 0 -13 50 -67 63 -67 4 0 7 7 7 16 0 8
5 12 10 9 6 -4 8 -10 5 -15 -7 -12 68 -80 109 -99 l31 -15 -35 -4 c-26 -3 -39
2 -51 17 -10 12 -20 21 -24 21 -4 0 -32 23 -62 50 -30 28 -59 50 -64 50 -5 0
-9 11 -9 24 0 14 -4 27 -9 30 -12 8 -20 56 -10 56 5 0 15 -13 24 -30z m3030
20 c3 -5 1 -10 -4 -10 -6 0 -11 5 -11 10 0 6 2 10 4 10 3 0 8 -4 11 -10z
m-2938 -22 c-3 -8 -6 -5 -6 6 -1 11 2 17 5 13 3 -3 4 -12 1 -19z m222 -24 c29
-60 20 -68 -13 -11 -28 47 -31 57 -17 57 5 0 19 -21 30 -46z m1831 20 c0 -8 4
-14 10 -14 6 0 6 -9 0 -25 -12 -31 6 -44 26 -19 14 18 14 18 12 -6 -2 -15 -12
-29 -25 -35 -13 -5 -23 -13 -23 -17 0 -18 -19 -6 -26 15 -4 12 -11 25 -17 28
-5 4 0 10 12 14 22 7 28 29 11 40 -17 10 -12 45 5 39 8 -4 15 -12 15 -20z m57
6 c-6 -23 3 -26 21 -8 13 13 15 8 6 -16 -7 -18 -22 -20 -42 -7 -12 7 -12 12
-1 30 17 26 23 27 16 1z m959 -5 c-9 -13 -16 -31 -16 -39 0 -15 -27 -30 -47
-27 -33 5 -121 -67 -108 -88 3 -6 -1 -11 -9 -11 -9 0 -16 5 -16 12 0 22 45 78
72 89 15 6 25 16 22 21 -4 6 1 8 12 4 11 -3 26 -1 34 4 10 6 11 10 3 10 -7 0
-13 5 -13 11 0 6 7 8 16 5 11 -4 22 1 31 14 20 29 38 25 19 -5z m-526 -27 c11
-24 20 -56 20 -71 0 -16 4 -26 10 -22 6 3 16 3 22 -2 8 -4 0 -10 -22 -15 -30
-6 -38 -3 -60 20 -14 15 -18 21 -10 14 7 -6 17 -12 21 -12 11 0 17 48 7 58 -9
9 -20 72 -12 72 3 0 14 -19 24 -42z m-3130 -29 c0 -18 -18 0 -34 34 l-16 32
25 -28 c14 -15 25 -33 25 -38z m1090 57 c0 -11 -19 -15 -25 -6 -3 5 1 10 9 10
9 0 16 -2 16 -4z m-1155 -16 c3 -5 -1 -10 -10 -10 -9 0 -13 5 -10 10 3 6 8 10
10 10 2 0 7 -4 10 -10z m1110 0 c-3 -5 -12 -10 -18 -10 -7 0 -6 4 3 10 19 12
23 12 15 0z m-1000 -71 c4 -28 13 -53 20 -55 16 -7 28 -34 15 -34 -15 0 -42
47 -50 88 -4 20 -11 46 -16 57 -7 17 -6 18 8 7 9 -7 19 -36 23 -63z m2212 65
c-3 -3 -12 -4 -19 -1 -8 3 -5 6 6 6 11 1 17 -2 13 -5z m-712 -14 c3 -5 1 -10
-4 -10 -6 0 -11 5 -11 10 0 6 2 10 4 10 3 0 8 -4 11 -10z m228 -12 c13 -15 21
-19 24 -11 3 9 10 9 29 1 17 -8 24 -19 24 -40 0 -33 -17 -38 -22 -5 -2 14 -11
23 -26 25 -29 4 -80 52 -56 52 4 0 16 -10 27 -22z m1752 12 c-3 -5 -11 -10
-16 -10 -6 0 -7 5 -4 10 3 6 11 10 16 10 6 0 7 -4 4 -10z m-1660 -10 c3 -5 -3
-10 -15 -10 -12 0 -18 5 -15 10 3 6 10 10 15 10 5 0 12 -4 15 -10z m-2299 -14
c6 -15 38 -11 64 8 9 7 8 3 -3 -10 -23 -27 -87 -22 -87 7 0 14 20 11 26 -5z
m1366 -15 c2 -17 1 -28 -4 -25 -8 5 -12 54 -4 54 2 0 6 -13 8 -29z m798 19 c0
-5 -2 -10 -4 -10 -3 0 -8 5 -11 10 -3 6 -1 10 4 10 6 0 11 -4 11 -10z m-931
-16 c11 -10 -10 -16 -22 -6 -8 7 -16 9 -19 6 -3 -3 -9 0 -13 7 -6 9 -1 10 21
5 16 -4 31 -10 33 -12z m595 0 c3 -8 2 -12 -4 -9 -6 3 -10 10 -10 16 0 14 7
11 14 -7z m556 6 c0 -5 -7 -10 -16 -10 -8 0 -12 5 -9 10 3 6 10 10 16 10 5 0
9 -4 9 -10z m1993 3 c-7 -2 -19 -2 -25 0 -7 3 -2 5 12 5 14 0 19 -2 13 -5z
m-2521 -25 c-7 -7 -12 -8 -12 -2 0 14 12 26 19 19 2 -3 -1 -11 -7 -17z m1023
12 c3 -5 -1 -10 -9 -10 -9 0 -16 5 -16 10 0 6 4 10 9 10 6 0 13 -4 16 -10z
m1715 0 c0 -5 -4 -10 -10 -10 -5 0 -10 5 -10 10 0 6 5 10 10 10 6 0 10 -4 10
-10z m-4006 -26 c9 -22 -3 -32 -14 -14 -12 19 -12 30 -1 30 5 0 12 -7 15 -16z
m686 1 c7 -9 10 -18 7 -22 -8 -7 -37 15 -37 28 0 14 16 11 30 -6z m1177 -42
c10 -21 9 -22 -21 -16 -41 8 -72 26 -33 20 32 -5 35 6 7 26 -11 8 -17 17 -14
20 9 9 49 -23 61 -50z m1378 47 c-3 -5 -13 -10 -21 -10 -8 0 -12 5 -9 10 3 6
13 10 21 10 8 0 12 -4 9 -10z m425 6 c0 -3 -4 -8 -10 -11 -5 -3 -10 -1 -10 4
0 6 5 11 10 11 6 0 10 -2 10 -4z m-2459 -64 c-15 -26 -30 -55 -34 -64 -3 -10
-12 -18 -18 -18 -7 0 -5 9 5 25 9 14 14 30 11 36 -4 5 -1 16 5 24 6 8 9 19 5
25 -3 6 3 10 14 10 12 0 21 5 21 11 0 5 4 8 10 4 5 -3 -3 -26 -19 -53z m447
35 c2 -9 -1 -17 -7 -17 -6 0 -11 5 -11 10 0 6 -9 10 -20 10 -11 0 -20 4 -20 9
0 18 55 6 58 -12z m117 6 c18 -14 18 -15 2 -9 -10 3 -25 6 -33 6 -8 0 -14 5
-14 10 0 15 22 12 45 -7z m1925 -36 c0 -4 -13 -1 -30 8 -16 8 -36 15 -45 15
-15 0 -20 12 -9 22 6 7 84 -34 84 -45z m-4251 34 c12 -8 12 -12 2 -25 -19 -23
-31 -20 -31 9 0 27 6 30 29 16z m1639 -24 c12 -18 22 -37 22 -43 0 -5 7 -21
14 -36 9 -18 11 -30 5 -34 -12 -7 -11 -9 -28 41 -8 22 -22 51 -32 64 -11 13
-19 28 -19 32 0 18 16 8 38 -24z m-311 -14 c-3 -10 -5 -4 -5 12 0 17 2 24 5
18 2 -7 2 -21 0 -30z m3025 15 c-3 -14 -1 -19 6 -14 6 3 13 2 17 -4 8 -13 -20
-24 -40 -16 -12 4 -13 10 -3 31 14 31 28 33 20 3z m64 -6 c-9 -9 -37 8 -31 18
5 8 11 7 21 -1 8 -6 12 -14 10 -17z m58 19 c3 -5 -3 -11 -15 -14 -16 -4 -18
-3 -8 9 13 16 16 17 23 5z m-4377 -12 c-12 -7 -16 -17 -12 -30 5 -14 3 -17 -9
-13 -9 3 -13 11 -9 18 13 24 26 36 37 36 6 0 3 -5 -7 -11z m1173 -30 c0 -18
-18 -9 -23 12 -4 16 -3 18 9 8 8 -6 14 -15 14 -20z m1050 27 c0 -3 -4 -8 -10
-11 -5 -3 -10 -1 -10 4 0 6 5 11 10 11 6 0 10 -2 10 -4z m1660 -6 c0 -5 -5
-10 -11 -10 -5 0 -7 5 -4 10 3 6 8 10 11 10 2 0 4 -4 4 -10z m185 0 c-3 -5
-14 -10 -23 -10 -15 0 -15 2 -2 10 20 13 33 13 25 0z m-3595 -16 c0 -8 -4 -12
-10 -9 -5 3 -10 10 -10 16 0 5 5 9 10 9 6 0 10 -7 10 -16z m1680 6 c0 -13 58
-42 70 -35 6 4 8 11 5 16 -4 5 4 7 17 5 13 -2 22 -8 21 -13 -1 -5 23 -9 52 -8
30 1 52 -1 49 -6 -7 -12 -107 -7 -116 6 -5 7 -11 7 -15 0 -5 -5 -19 -16 -33
-24 -23 -13 -24 -13 -11 2 12 15 11 17 -5 17 -11 0 -27 7 -36 14 -20 14 -24
36 -8 36 6 0 10 -4 10 -10z m1700 6 c0 -11 -19 -15 -25 -6 -3 5 1 10 9 10 9 0
16 -2 16 -4z m-880 -20 c0 -21 -23 -36 -40 -26 -13 8 -12 10 3 10 9 0 17 7 17
15 0 8 5 15 10 15 6 0 10 -6 10 -14z m128 -22 c-10 -10 -28 6 -28 24 0 15 1
15 17 -1 9 -9 14 -19 11 -23z m642 26 c12 -8 12 -10 -5 -10 -11 0 -27 5 -35
10 -12 8 -12 10 5 10 11 0 27 -5 35 -10z m-165 -29 c4 -21 11 -28 24 -24 24 6
22 33 -2 33 -11 0 -18 3 -15 6 4 3 28 2 54 -2 41 -6 45 -9 31 -19 -9 -7 -17
-15 -17 -19 0 -13 20 -5 40 16 11 12 20 17 20 11 0 -6 -7 -16 -15 -23 -8 -7
-13 -16 -10 -20 2 -4 -4 -15 -15 -25 -11 -10 -20 -28 -20 -41 0 -28 -42 -72
-49 -52 -2 7 -17 49 -32 92 -15 44 -26 84 -23 88 10 16 23 7 29 -21z m-3109
-8 c-7 -7 -26 7 -26 19 0 6 6 6 15 -2 9 -7 13 -15 11 -17z m1144 17 c0 -5 -4
-10 -10 -10 -5 0 -10 5 -10 10 0 6 5 10 10 10 6 0 10 -4 10 -10z m860 -11 c0
-6 -4 -7 -10 -4 -5 3 -10 11 -10 16 0 6 5 7 10 4 6 -3 10 -11 10 -16z m1640
11 c8 -5 11 -10 5 -10 -5 0 -17 5 -25 10 -8 5 -10 10 -5 10 6 0 17 -5 25 -10z
m-4110 -54 c0 -6 -5 -17 -12 -24 -9 -9 -9 -12 1 -12 7 0 20 7 28 16 15 14 15
19 -2 47 l-19 32 24 -17 c15 -9 24 -24 22 -35 -4 -27 -4 -64 2 -106 4 -28 -1
-52 -18 -88 -14 -27 -21 -49 -18 -49 4 0 12 -11 18 -24 11 -23 2 -56 -15 -56
-9 0 -45 79 -47 103 -1 9 -8 25 -17 35 -9 9 -25 39 -36 65 -19 44 -20 52 -7
75 8 15 20 42 26 59 l12 33 29 -21 c16 -11 29 -26 29 -33z m1186 40 c3 -9 17
-13 40 -11 l34 3 0 -44 c0 -51 -17 -60 -22 -11 -3 27 -7 32 -28 31 -14 -1 -29
5 -33 13 -6 10 -18 12 -38 8 -34 -8 -39 2 -6 15 32 13 47 12 53 -4z m2017 2
c16 -12 16 -14 -4 -26 -19 -12 -20 -11 -14 7 8 25 5 25 -29 8 -27 -15 -26 -29
2 -20 13 3 12 1 -3 -11 -24 -20 -40 -16 -40 10 0 12 8 20 23 22 12 2 22 8 22
13 0 13 23 11 43 -3z m67 2 c-19 -13 -30 -13 -30 0 0 6 10 10 23 10 18 0 19
-2 7 -10z m243 3 c-7 -2 -13 -9 -13 -15 0 -6 7 -8 15 -5 18 8 26 -5 15 -23 -7
-12 -14 -10 -35 10 -24 22 -24 25 -8 31 10 4 23 8 28 8 6 -1 4 -3 -2 -6z m287
0 c-8 -3 -30 -19 -47 -36 -35 -33 -46 -20 -17 21 10 15 25 22 47 21 18 0 25
-3 17 -6z m97 1 c13 -4 20 -10 17 -16 -3 -5 -15 -6 -27 -3 -20 6 -21 5 -3 -6
15 -9 26 -8 53 5 18 9 38 16 43 16 16 0 50 -33 50 -48 0 -8 6 -12 15 -8 8 3
15 1 15 -5 0 -6 5 -7 10 -4 6 3 13 -1 16 -9 6 -16 47 -13 70 6 8 5 18 3 27 -7
22 -21 30 -19 24 7 -3 12 -2 30 4 40 10 18 2 22 -38 21 -7 -1 -13 3 -13 8 0
12 22 11 55 -1 14 -5 24 -14 21 -19 -4 -5 -1 -11 4 -13 6 -2 13 -23 16 -48 3
-24 7 -47 10 -51 2 -4 -12 -21 -31 -38 -37 -32 -69 -34 -122 -8 -17 8 -29 7
-48 -3 -17 -9 -61 -14 -130 -14 -80 0 -100 -2 -88 -11 13 -10 11 -13 -16 -24
-17 -7 -38 -10 -48 -7 -10 4 -14 4 -10 0 6 -6 -102 -53 -123 -54 -11 0 -4 60
8 72 6 6 12 18 12 25 0 9 17 13 53 14 l52 1 -42 11 c-38 11 -41 14 -31 32 18
34 50 65 61 58 6 -3 7 -1 3 5 -3 6 4 20 16 32 13 11 24 16 26 10 5 -15 28 -12
43 7 10 11 10 14 2 9 -7 -4 -13 -3 -13 3 0 5 6 12 13 14 17 7 19 7 44 1z
m-1237 -23 c0 -11 -4 -23 -10 -26 -6 -4 -10 5 -10 19 0 14 5 26 10 26 6 0 10
-9 10 -19z m1620 15 c0 -3 -4 -8 -10 -11 -5 -3 -10 -1 -10 4 0 6 5 11 10 11 6
0 10 -2 10 -4z m-2216 -21 c3 -9 0 -15 -9 -15 -8 0 -15 7 -15 15 0 8 4 15 9
15 5 0 11 -7 15 -15z m366 5 c0 -5 -2 -10 -4 -10 -3 0 -8 5 -11 10 -3 6 -1 10
4 10 6 0 11 -4 11 -10z m1934 -5 c-4 -8 -10 -15 -15 -15 -5 0 -9 7 -9 15 0 8
7 15 15 15 9 0 12 -6 9 -15z m-174 -5 c0 -5 -4 -10 -10 -10 -5 0 -10 5 -10 10
0 6 5 10 10 10 6 0 10 -4 10 -10z m-1943 -70 c9 -71 3 -88 -18 -48 -17 31 -20
118 -4 118 8 0 16 -26 22 -70z m272 38 c16 -18 28 -34 27 -36 -7 -6 -36 11
-36 21 0 6 -7 19 -17 29 -9 10 -13 18 -9 18 3 0 19 -15 35 -32z m443 3 c-3
-28 -28 -56 -37 -41 -4 6 -1 18 7 27 10 13 10 17 0 20 -18 7 -3 25 16 21 11
-3 16 -12 14 -27z m1362 14 c3 -8 1 -15 -4 -15 -6 0 -10 7 -10 15 0 8 2 15 4
15 2 0 6 -7 10 -15z m115 -1 c21 -15 22 -18 6 -27 -12 -6 -20 -6 -25 3 -6 9
-12 9 -29 0 -12 -6 -30 -9 -39 -7 -13 3 -11 6 10 15 14 6 29 16 33 21 9 15 17
14 44 -5z m-3979 -4 c0 -5 -2 -10 -4 -10 -3 0 -8 5 -11 10 -3 6 -1 10 4 10 6
0 11 -4 11 -10z m760 -11 c0 -5 -4 -9 -10 -9 -5 0 -10 7 -10 16 0 8 5 12 10 9
6 -3 10 -10 10 -16z m2260 16 c0 -3 -11 -10 -25 -15 -14 -5 -25 -14 -25 -19 0
-6 6 -8 14 -5 8 3 17 1 21 -5 8 -13 -24 -14 -44 -2 -19 12 0 38 32 44 12 2 23
5 25 6 1 0 2 -1 2 -4z m-3100 -15 c0 -5 -2 -10 -4 -10 -3 0 -8 5 -11 10 -3 6
-1 10 4 10 6 0 11 -4 11 -10z m731 -6 c12 -14 11 -16 -5 -13 -11 2 -21 10 -24
17 -5 17 13 15 29 -4z m879 12 c0 -3 -4 -8 -10 -11 -5 -3 -10 -1 -10 4 0 6 5
11 10 11 6 0 10 -2 10 -4z m565 -6 c3 -5 1 -10 -4 -10 -6 0 -11 5 -11 10 0 6
2 10 4 10 3 0 8 -4 11 -10z m-1823 -25 c15 -14 34 -25 43 -25 8 0 15 -4 15
-10 0 -20 -35 -9 -67 20 -18 16 -33 32 -33 35 0 11 17 4 42 -20z m298 21 c0
-11 -19 -15 -25 -6 -3 5 1 10 9 10 9 0 16 -2 16 -4z m37 -2 c-3 -3 -12 -4 -19
-1 -8 3 -5 6 6 6 11 1 17 -2 13 -5z m1596 -39 c6 -37 -1 -105 -12 -105 -3 0
-6 33 -6 74 -1 77 8 92 18 31z m387 24 c0 -5 13 -15 29 -20 28 -10 28 -11 14
-40 -8 -16 -19 -29 -24 -29 -6 0 -8 4 -5 9 4 5 -7 12 -24 16 -27 6 -29 9 -19
28 9 16 9 22 0 25 -19 6 -12 22 9 22 11 0 20 -5 20 -11z m457 -9 c3 -11 9 -18
13 -15 4 3 13 -2 20 -10 10 -12 9 -15 -7 -15 -10 0 -29 -7 -41 -16 -12 -8 -22
-13 -22 -10 0 3 -10 -5 -23 -17 -13 -12 -21 -28 -19 -34 3 -8 14 -3 31 15 23
26 95 51 108 39 2 -3 9 -27 16 -53 11 -43 10 -56 -7 -102 -17 -46 -22 -53 -40
-47 -76 24 -143 29 -196 14 -8 -2 -15 3 -16 11 -2 24 -17 54 -33 67 -17 12
-35 7 -26 -8 4 -5 -1 -9 -10 -9 -12 0 -15 6 -10 20 5 15 3 18 -9 14 -9 -3 -16
-1 -16 5 0 6 -6 8 -14 5 -8 -3 -17 -1 -20 5 -4 5 4 13 16 17 30 10 68 10 68 1
-1 -4 6 -15 14 -23 12 -11 20 -12 35 -5 22 12 34 38 21 46 -5 3 -2 13 6 23 8
9 23 27 32 40 16 22 34 27 77 20 15 -2 20 2 19 20 -1 28 26 30 33 2z m193 0
c-6 -11 -15 -18 -21 -14 -6 4 -6 11 2 20 17 21 31 17 19 -6z m587 -27 c-3 -10
-5 -2 -5 17 0 19 2 27 5 18 2 -10 2 -26 0 -35z m-3933 16 c-6 -11 -24 -2 -24
11 0 5 7 7 15 4 8 -4 12 -10 9 -15z m86 11 c0 -5 -2 -10 -4 -10 -3 0 -8 5 -11
10 -3 6 -1 10 4 10 6 0 11 -4 11 -10z m787 4 c-3 -3 -12 -4 -19 -1 -8 3 -5 6
6 6 11 1 17 -2 13 -5z m3199 -30 c-3 -7 2 -18 10 -24 8 -7 14 -19 14 -27 0
-12 -6 -11 -32 5 -18 11 -50 25 -70 32 -21 6 -38 16 -38 21 0 9 5 11 53 14 15
1 30 5 34 8 10 10 35 -15 29 -29z m-4356 22 c0 -3 -4 -8 -10 -11 -5 -3 -10 -1
-10 4 0 6 5 11 10 11 6 0 10 -2 10 -4z m250 -6 c0 -5 -4 -10 -10 -10 -5 0 -10
5 -10 10 0 6 5 10 10 10 6 0 10 -4 10 -10z m2985 -9 c-3 -6 -14 -11 -23 -11
-15 1 -15 2 2 15 21 16 32 13 21 -4z m61 3 c-3 -9 -6 -18 -6 -20 0 -3 -11 -9
-25 -14 -18 -7 -25 -17 -25 -35 0 -29 -3 -30 -30 -12 -17 10 -22 9 -30 -3 -6
-9 -10 -10 -10 -3 0 12 109 103 124 103 4 0 5 -7 2 -16z m1094 12 c0 -3 -4 -8
-10 -11 -5 -3 -10 -1 -10 4 0 6 5 11 10 11 6 0 10 -2 10 -4z m-3249 -19 c-1
-12 -15 -9 -19 4 -3 6 1 10 8 8 6 -3 11 -8 11 -12z m349 9 c0 -3 -4 -8 -10
-11 -5 -3 -10 -1 -10 4 0 6 5 11 10 11 6 0 10 -2 10 -4z m70 -6 c0 -5 -4 -10
-9 -10 -6 0 -13 5 -16 10 -3 6 1 10 9 10 9 0 16 -4 16 -10z m971 -13 c9 -12
20 -33 24 -47 8 -25 8 -25 -14 -6 -11 11 -21 24 -21 29 0 6 -7 19 -17 29 -13
14 -13 18 -2 18 8 0 21 -11 30 -23z m659 13 c0 -5 -6 -10 -14 -10 -8 0 -16 -7
-19 -14 -3 -8 -19 -22 -35 -30 -28 -14 -30 -14 -25 2 2 10 21 27 41 39 43 24
52 27 52 13z m1246 -28 c-18 -16 -19 -16 -12 1 3 10 6 24 6 30 0 8 4 7 12 -1
10 -9 8 -16 -6 -30z m-3365 -4 c7 -18 14 -36 17 -40 2 -5 0 -8 -5 -8 -5 0 -19
18 -32 40 -18 32 -19 40 -8 40 8 0 21 -15 28 -32z m39 28 c0 -3 -4 -8 -10 -11
-5 -3 -10 -1 -10 4 0 6 5 11 10 11 6 0 10 -2 10 -4z m2007 -2 c-3 -3 -12 -4
-19 -1 -8 3 -5 6 6 6 11 1 17 -2 13 -5z m-2787 -29 c8 -10 5 -13 -12 -13 -13
0 -34 -3 -48 -7 -24 -6 -24 -6 -6 9 11 9 14 16 7 16 -7 0 -10 4 -7 9 7 11 53
2 66 -14z m1510 9 c0 -8 -4 -12 -10 -9 -5 3 -10 10 -10 16 0 5 5 9 10 9 6 0
10 -7 10 -16z m465 6 c3 -5 1 -10 -4 -10 -6 0 -11 5 -11 10 0 6 2 10 4 10 3 0
8 -4 11 -10z m2100 0 c-3 -5 -10 -10 -16 -10 -5 0 -9 5 -9 10 0 6 7 10 16 10
8 0 12 -4 9 -10z m-2675 -10 c8 -5 11 -12 7 -16 -4 -4 -15 0 -24 9 -18 18 -8
23 17 7z m-247 -20 c-6 -21 -24 -23 -30 -3 -2 6 4 13 14 16 10 3 19 5 20 6 0
0 -1 -8 -4 -19z m2778 11 c-18 -12 -4 -33 18 -26 28 9 93 -23 89 -43 -6 -30
-118 -26 -118 5 0 9 -6 13 -15 9 -11 -4 -15 2 -15 23 0 33 7 41 34 41 16 0 18
-2 7 -9z m-3474 -28 c12 -29 27 -88 17 -65 -3 6 -15 12 -26 12 -15 0 -18 -5
-14 -16 5 -14 4 -15 -9 -4 -19 16 -19 30 0 30 13 0 15 7 9 35 -7 42 6 46 23 8z
m2113 -31 c0 -12 -3 -13 -11 -5 -6 6 -18 9 -25 6 -15 -6 -20 37 -7 51 10 9 43
-31 43 -52z m1565 48 c-3 -5 -10 -10 -16 -10 -5 0 -9 5 -9 10 0 6 7 10 16 10
8 0 12 -4 9 -10z m-2325 -20 c0 -11 -4 -20 -9 -20 -5 0 -7 9 -4 20 3 11 7 20
9 20 2 0 4 -9 4 -20z m2385 1 c3 -5 -8 -19 -24 -30 -27 -19 -29 -20 -35 -4 -6
15 -8 15 -16 3 -6 -8 -10 -10 -10 -4 0 12 20 34 32 34 4 0 8 -7 8 -15 0 -9 6
-12 16 -8 8 3 13 12 10 19 -6 16 10 19 19 5z m-4415 -11 c0 -5 -4 -10 -10 -10
-5 0 -10 5 -10 10 0 6 5 10 10 10 6 0 10 -4 10 -10z m127 4 c-3 -3 -12 -4 -19
-1 -8 3 -5 6 6 6 11 1 17 -2 13 -5z m3953 -10 c0 -8 -5 -12 -10 -9 -6 4 -8 11
-5 16 9 14 15 11 15 -7z m233 -3 c3 -13 -1 -21 -13 -24 -13 -3 -16 1 -12 19 5
29 18 31 25 5z m-4063 -26 c0 -9 -8 -10 -34 -1 -19 6 -33 13 -31 17 7 11 65
-3 65 -16z m746 -21 c-3 -12 -2 -34 4 -48 5 -15 5 -28 0 -31 -13 -8 -19 7 -26
71 -7 55 -6 58 10 45 11 -9 15 -22 12 -37z m1414 21 c13 -14 19 -25 13 -25 -6
0 -18 11 -27 25 -9 14 -15 25 -13 25 2 0 14 -11 27 -25z m-1830 5 c0 -5 -4
-10 -10 -10 -5 0 -10 5 -10 10 0 6 5 10 10 10 6 0 10 -4 10 -10z m764 1 c3 -5
-1 -11 -9 -15 -9 -3 -15 0 -15 9 0 16 16 20 24 6z m-852 -41 c15 -22 32 -35
45 -35 24 0 44 -15 22 -16 -8 0 -23 -2 -35 -3 -15 -2 -27 10 -46 46 -30 56
-21 60 14 8z m580 -12 c-8 -8 -12 -9 -12 -1 0 6 -3 20 -6 30 -7 17 -6 17 12 1
14 -14 16 -20 6 -30z m1398 27 c0 -8 -7 -15 -16 -15 -14 0 -14 3 -4 15 7 8 14
15 16 15 2 0 4 -7 4 -15z m306 -12 c-10 -10 -19 5 -10 18 6 11 8 11 12 0 2 -7
1 -15 -2 -18z m-1465 -16 c-4 -11 -14 -23 -20 -25 -10 -3 -10 1 -3 14 5 11 7
25 5 32 -3 7 1 10 11 6 10 -4 12 -12 7 -27z m-1211 13 c0 -5 -9 -10 -20 -10
-11 0 -20 5 -20 10 0 6 9 10 20 10 11 0 20 -4 20 -10z m4160 0 c0 -5 -2 -10
-4 -10 -3 0 -8 5 -11 10 -3 6 -1 10 4 10 6 0 11 -4 11 -10z m-4010 -15 c0 -8
-4 -15 -10 -15 -5 0 -10 7 -10 15 0 8 5 15 10 15 6 0 10 -7 10 -15z m490 0 c7
-8 8 -15 2 -15 -5 0 -15 7 -22 15 -7 8 -8 15 -2 15 5 0 15 -7 22 -15z m3570 5
c0 -5 -4 -10 -10 -10 -5 0 -10 5 -10 10 0 6 5 10 10 10 6 0 10 -4 10 -10z
m-1985 -20 c3 -5 -4 -6 -15 -3 -11 3 -22 9 -25 13 -3 5 4 6 15 3 11 -3 22 -9
25 -13z m-2155 -24 c0 -3 -6 -6 -14 -6 -8 0 -22 -7 -31 -16 -8 -9 -22 -13 -30
-10 -23 9 -17 26 9 26 16 0 26 7 29 21 5 20 7 20 21 6 9 -9 16 -18 16 -21z
m17 12 c-3 -8 -6 -5 -6 6 -1 11 2 17 5 13 3 -3 4 -12 1 -19z m-92 2 c3 -6 -1
-7 -9 -4 -18 7 -21 14 -7 14 6 0 13 -4 16 -10z m2455 -5 c7 -8 8 -15 2 -15 -5
0 -15 7 -22 15 -7 8 -8 15 -2 15 5 0 15 -7 22 -15z m225 -23 c-21 -5 -40 12
-30 28 5 8 13 6 27 -7 18 -16 19 -18 3 -21z m-274 5 c-10 -9 -11 -8 -5 6 3 10
9 15 12 12 3 -3 0 -11 -7 -18z m-1421 3 c0 -5 -4 -10 -10 -10 -5 0 -10 5 -10
10 0 6 5 10 10 10 6 0 10 -4 10 -10z m182 -12 c-7 -7 -12 -8 -12 -2 0 14 12
26 19 19 2 -3 -1 -11 -7 -17z m-1194 0 c7 -7 12 -20 12 -30 0 -14 -7 -18 -32
-17 -18 1 -25 3 -15 6 19 5 23 19 5 25 -6 2 -8 10 -4 16 9 15 19 15 34 0z
m1112 -8 c0 -5 -2 -10 -4 -10 -3 0 -8 5 -11 10 -3 6 -1 10 4 10 6 0 11 -4 11
-10z m1387 -25 c-1 -19 -5 -35 -10 -35 -5 0 -6 -11 -3 -25 4 -14 4 -25 0 -25
-11 0 -34 29 -34 44 0 8 -7 19 -17 24 -11 7 -14 16 -9 28 7 18 8 18 26 -3 19
-24 30 -21 30 9 0 10 4 18 9 18 5 0 9 -16 8 -35z m898 -10 c-10 -31 -15 -36
-20 -22 -4 10 0 28 10 43 23 35 27 26 10 -21z m-136 11 c41 -19 47 -39 23 -86
-12 -24 -18 -48 -15 -53 3 -6 1 -7 -5 -3 -7 4 -12 14 -12 22 0 8 -5 12 -10 9
-6 -4 -8 -11 -5 -16 4 -5 2 -9 -4 -9 -5 0 -13 5 -16 10 -3 6 -14 10 -25 10
-11 0 -20 10 -24 25 -4 14 -13 25 -22 25 -8 0 -13 4 -9 9 3 5 1 12 -4 15 -5 4
-12 2 -16 -4 -4 -6 -11 -8 -16 -5 -12 8 -12 65 1 65 6 0 10 -7 10 -17 0 -14 2
-15 18 -1 32 29 76 30 131 4z m-2681 -9 c3 -16 1 -17 -17 -7 -25 13 -28 33 -4
28 10 -2 19 -11 21 -21z m237 13 c-3 -5 -12 -10 -18 -10 -7 0 -6 4 3 10 19 12
23 12 15 0z m2660 0 c4 -6 -5 -10 -19 -10 -14 0 -26 5 -26 10 0 6 9 10 19 10
11 0 23 -4 26 -10z m-2740 -10 c3 -5 13 -10 21 -10 8 0 30 -16 48 -35 19 -19
43 -35 54 -35 11 0 22 -9 25 -21 3 -11 15 -23 26 -26 11 -3 17 -11 15 -18 -3
-7 -1 -16 5 -20 6 -3 11 1 11 10 0 9 6 15 13 13 14 -5 18 -41 6 -60 -7 -10 -9
-10 -9 2 -1 11 -4 10 -15 -4 -9 -12 -11 -22 -5 -26 25 -15 14 -110 -12 -110
-4 0 -21 20 -38 45 -31 45 -31 45 -8 45 18 0 20 2 8 10 -13 8 -13 11 3 22 12
9 16 20 11 32 -5 14 -9 15 -15 4 -6 -10 -9 -8 -9 7 0 23 -81 111 -110 120 -10
3 -22 15 -25 26 -4 10 -11 19 -16 19 -5 0 -9 5 -9 10 0 6 4 10 9 10 6 0 13 -4
16 -10z m468 -53 c-3 -6 -7 -23 -8 -39 -3 -36 -12 -45 -27 -30 -9 9 -7 13 5
18 21 8 22 34 2 34 -8 0 -15 5 -15 10 0 6 4 10 10 10 6 0 6 9 0 26 -14 37 -13
38 15 8 13 -14 22 -31 18 -37z m-881 31 c-7 -7 -12 -8 -12 -2 0 14 12 26 19
19 2 -3 -1 -11 -7 -17z m3217 -20 c23 -28 23 -30 4 -19 -12 6 -23 16 -25 23
-3 8 -12 5 -27 -9 -13 -12 -20 -26 -17 -32 4 -6 0 -21 -9 -35 -11 -16 -13 -26
-6 -31 19 -11 12 -23 -19 -27 -32 -5 -43 15 -14 26 13 5 14 9 4 21 -10 13 -9
19 6 37 11 12 14 18 7 15 -7 -5 -9 0 -6 14 4 12 11 18 20 15 8 -4 17 4 23 19
11 29 26 25 59 -17z m-2599 17 c0 -8 -2 -15 -4 -15 -2 0 -6 7 -10 15 -3 8 -1
15 4 15 6 0 10 -7 10 -15z m354 -20 c9 -14 14 -25 10 -25 -12 0 -53 38 -47 44
11 11 20 6 37 -19z m-840 -10 c9 -14 13 -25 10 -25 -11 0 -44 32 -44 42 0 16
18 8 34 -17z m545 -12 c-1 -37 -1 -37 -8 -8 -7 28 -5 45 5 45 2 0 3 -17 3 -37z
m-657 2 c-2 -14 -6 -25 -8 -25 -2 0 -4 11 -4 25 0 14 4 25 9 25 4 0 6 -11 3
-25z m718 -12 c0 -24 -25 -9 -28 17 -3 21 -2 22 12 11 9 -7 16 -20 16 -28z
m-462 -5 c2 -5 10 -4 18 2 14 12 34 6 34 -11 0 -5 -6 -9 -14 -9 -7 0 -16 -9
-19 -20 -6 -24 -35 -26 -63 -5 -15 12 -16 16 -5 24 15 10 -3 26 -19 16 -5 -3
-10 1 -10 9 0 11 8 13 38 9 20 -3 39 -10 40 -15z m97 12 c5 -8 11 -7 21 1 21
17 29 3 9 -17 -15 -16 -18 -16 -38 5 -12 11 -16 21 -10 21 7 0 15 -5 18 -10z
m1713 -36 c28 -25 52 -53 52 -62 0 -13 -4 -12 -19 5 -11 12 -40 36 -65 53 -25
18 -43 37 -40 41 9 15 18 10 72 -37z m-1448 0 c0 -8 -7 -14 -15 -14 -15 0 -21
21 -9 33 10 9 24 -2 24 -19z m200 14 c0 -4 -4 -8 -9 -8 -6 0 -12 4 -15 8 -3 5
1 9 9 9 8 0 15 -4 15 -9z m2166 -50 c-4 -18 -1 -28 7 -28 15 0 -13 -20 -29
-20 -17 0 -28 69 -13 86 18 22 42 -3 35 -38z m72 25 c4 -27 -5 -29 -30 -6 -24
22 -23 35 5 31 14 -2 23 -11 25 -25z m-3025 3 c12 -8 43 -18 69 -21 54 -8 63
-22 42 -65 -9 -16 -14 -36 -11 -43 2 -6 11 3 21 21 15 30 46 45 46 22 0 -5 5
-10 10 -10 20 0 9 31 -21 61 -17 17 -29 32 -27 35 8 7 129 -109 180 -173 28
-35 69 -77 92 -92 51 -35 121 -124 130 -166 7 -26 -5 -17 -86 65 -160 161
-198 195 -198 177 0 -9 8 -17 18 -17 15 -1 15 -2 2 -13 -9 -7 -16 -22 -17 -35
-2 -19 1 -21 12 -12 8 6 19 9 25 5 5 -3 10 -1 10 6 0 8 4 8 15 -1 18 -15 3
-40 -22 -40 -10 0 -13 -6 -9 -15 7 -18 -45 -116 -58 -112 -6 2 -12 18 -14 36
-3 30 -2 32 20 26 22 -7 22 -7 7 11 -11 13 -14 25 -9 39 5 11 9 45 9 76 1 30
6 60 11 65 7 7 0 17 -20 32 -16 13 -30 18 -30 12 0 -5 -7 -10 -16 -10 -8 0
-12 -5 -9 -10 4 -6 14 -9 23 -8 15 3 17 -6 15 -57 -3 -72 -10 -105 -23 -105
-5 0 -7 7 -3 16 4 10 -2 17 -16 21 -22 6 -22 6 -3 27 27 29 37 60 17 53 -8 -4
-17 -2 -20 3 -4 6 -1 10 4 10 17 0 13 17 -6 25 -12 4 -24 -1 -35 -15 -17 -21
-18 -21 -18 -2 0 11 -16 30 -39 46 -39 27 -65 63 -38 53 7 -3 23 1 36 8 l23
12 -31 6 c-17 4 -37 4 -44 1 -8 -3 -20 10 -30 31 -19 39 -16 42 16 21z m3197
-21 c0 -11 -19 -4 -41 15 l-24 21 33 -16 c17 -8 32 -18 32 -20z m-2876 9 c3
-9 -4 -25 -19 -40 -14 -14 -25 -29 -25 -34 0 -17 -19 -11 -29 9 -9 16 -8 18 8
14 26 -7 62 44 40 58 -12 7 -11 9 2 9 9 0 20 -7 23 -16z m456 4 c0 -24 -15
-37 -30 -28 -10 7 -11 10 -2 10 6 0 12 7 12 15 0 8 5 15 10 15 6 0 10 -6 10
-12z m1380 2 c0 -5 -4 -10 -10 -10 -5 0 -10 5 -10 10 0 6 5 10 10 10 6 0 10
-4 10 -10z m-1449 -59 c-11 -7 -9 -13 9 -31 18 -18 24 -20 31 -9 5 8 3 17 -4
21 -7 5 1 8 18 8 l30 -1 -32 -28 c-17 -16 -30 -31 -27 -33 2 -3 -11 -22 -29
-43 l-32 -37 -3 26 c-1 15 3 26 11 26 9 0 8 3 -1 9 -14 9 -19 70 -9 106 3 11
6 24 6 30 1 5 11 -1 24 -13 18 -18 19 -24 8 -31z m2411 17 c-7 -7 -12 -8 -12
-2 0 6 3 14 7 17 3 4 9 5 12 2 2 -3 -1 -11 -7 -17z m-2749 5 c4 -3 2 -12 -4
-19 -6 -7 -8 -18 -4 -25 6 -8 10 -7 16 2 7 12 11 11 26 -3 16 -17 16 -18 0
-18 -9 0 -17 -4 -17 -9 0 -17 -38 1 -50 25 -11 19 -11 26 0 39 13 16 23 19 33
8z m105 -44 c-3 -35 -5 -37 -16 -22 -7 10 -19 26 -27 36 -20 23 -19 25 8 29
33 6 38 0 35 -43z m1885 3 c-6 -23 -53 -25 -53 -3 0 24 7 29 34 24 16 -3 22
-10 19 -21z m-1493 -2 c0 -5 -2 -10 -4 -10 -3 0 -8 5 -11 10 -3 6 -1 10 4 10
6 0 11 -4 11 -10z m1340 -21 c0 -5 -7 -6 -15 -3 -8 4 -15 13 -15 21 0 13 3 13
15 3 8 -7 15 -16 15 -21z m-2412 -2 c19 -15 14 -30 -9 -24 -17 5 -20 2 -16
-14 3 -10 1 -22 -4 -25 -10 -6 -11 -4 -14 42 -3 32 16 42 43 21z m534 -12 c11
-14 26 -25 34 -25 8 0 14 -7 14 -15 0 -13 -4 -14 -20 -5 -16 9 -19 8 -14 -7 3
-12 -1 -10 -13 6 -10 13 -18 31 -18 40 0 9 -6 15 -13 13 -8 -1 -11 2 -7 8 9
15 15 13 37 -15z m1927 18 c-4 -26 2 -43 14 -37 6 4 9 4 5 -1 -4 -4 -3 -15 4
-22 9 -11 9 -16 0 -22 -7 -4 -12 -16 -11 -27 4 -38 -1 -79 -9 -69 -4 6 -16 15
-27 21 -12 7 -19 20 -18 33 2 12 -2 21 -7 21 -6 0 -10 9 -10 20 0 11 6 20 13
20 9 0 8 3 -2 9 -11 7 -11 10 0 17 7 4 14 3 17 -4 2 -7 8 -12 14 -12 5 0 7 9
3 20 -3 11 -3 24 0 30 7 12 16 13 14 3z m111 -38 c0 -8 -9 -10 -25 -7 -14 2
-25 10 -25 17 0 8 9 10 25 7 14 -2 25 -10 25 -17z m-2290 -37 c0 -27 -16 -14
-29 24 -11 31 -11 31 9 13 11 -10 20 -27 20 -37z m1770 42 c0 -5 -4 -10 -10
-10 -5 0 -10 5 -10 10 0 6 5 10 10 10 6 0 10 -4 10 -10z m155 -10 c3 -5 -1
-10 -9 -10 -9 0 -16 5 -16 10 0 6 4 10 9 10 6 0 13 -4 16 -10z m148 -5 c4 -8
2 -17 -2 -20 -5 -2 -11 4 -14 15 -6 23 8 27 16 5z m742 -15 c-4 -13 -1 -22 8
-26 9 -3 12 -14 9 -30 -5 -27 -4 -26 -26 -18 -24 9 -19 94 6 94 5 0 6 -9 3
-20z m-835 -12 c5 -13 9 -18 10 -13 1 19 20 -20 20 -43 0 -16 -4 -21 -12 -16
-9 5 -8 2 1 -9 8 -10 11 -20 8 -23 -7 -7 -90 76 -93 93 -2 14 23 32 44 33 7 0
17 -10 22 -22z m-2091 3 c8 -5 9 -11 3 -15 -5 -3 -15 1 -22 9 -14 16 -3 20 19
6z m2009 -9 c2 -7 -2 -10 -12 -6 -9 3 -16 11 -16 16 0 13 23 5 28 -10z m402
14 c0 -3 -4 -8 -10 -11 -5 -3 -10 -1 -10 4 0 6 5 11 10 11 6 0 10 -2 10 -4z
m550 -6 c0 -5 -4 -10 -10 -10 -5 0 -10 5 -10 10 0 6 5 10 10 10 6 0 10 -4 10
-10z m-2316 -51 c-3 -5 -9 -9 -15 -9 -11 0 -12 43 -2 54 9 9 25 -33 17 -45z
m-111 -11 c-8 -15 -28 -8 -42 13 -10 17 -10 23 0 29 13 9 51 -29 42 -42z m287
41 c0 -5 5 -7 12 -3 8 5 9 2 4 -12 -5 -10 -10 -28 -13 -39 -9 -39 -27 -65 -43
-65 -10 0 -23 -7 -30 -15 -9 -10 -9 -15 -1 -15 6 0 11 5 11 12 0 23 14 -3 15
-28 1 -30 -48 -89 -65 -79 -15 9 -12 90 4 128 7 18 25 45 40 60 14 15 26 31
26 36 0 9 22 31 32 31 4 0 8 -5 8 -11z m1381 -12 c-13 -13 -26 -3 -16 12 3 6
11 8 17 5 6 -4 6 -10 -1 -17z m209 -17 c0 -5 -14 -10 -31 -10 -17 0 -28 4 -24
10 3 6 17 10 31 10 13 0 24 -4 24 -10z m-370 -15 c14 -16 10 -18 -14 -9 -9 3
-16 10 -16 15 0 14 16 11 30 -6z m195 -15 c15 -28 14 -30 -3 -30 -10 0 -23 -5
-29 -11 -8 -8 -13 -2 -18 21 -5 23 -3 35 6 41 22 14 27 11 44 -21z m-175 -37
c0 -11 19 -18 43 -14 4 0 7 -13 7 -29 l0 -30 -52 37 c-55 38 -68 50 -68 69 0
8 12 6 35 -4 19 -9 35 -22 35 -29z m868 -27 c2 -39 -1 -65 -6 -62 -5 3 -7 16
-5 29 3 14 -3 39 -11 56 -17 32 -13 55 7 48 7 -2 13 -31 15 -71z m-2333 38 c8
-9 22 -13 30 -10 12 4 15 -3 15 -29 0 -31 -3 -35 -27 -37 -49 -2 -67 2 -89 23
-25 24 -21 53 6 44 11 -3 20 0 24 10 7 19 20 19 41 -1z m-473 -32 c3 -11 0
-19 -8 -19 -7 0 -12 9 -11 19 1 10 4 18 8 18 4 0 9 -8 11 -18z m2302 3 c-4 -8
-8 -15 -10 -15 -2 0 -4 7 -4 15 0 8 4 15 10 15 5 0 7 -7 4 -15z m-137 -77 l3
-30 -34 30 c-19 16 -40 32 -48 34 -9 4 -6 11 12 25 l24 20 20 -25 c11 -13 21
-38 23 -54z m-2107 62 c0 -5 -2 -10 -4 -10 -3 0 -8 5 -11 10 -3 6 -1 10 4 10
6 0 11 -4 11 -10z m2163 -6 c-6 -16 -23 -19 -23 -4 0 5 -7 6 -17 3 -10 -4 -14
-2 -10 4 10 16 56 13 50 -3z m-2128 -14 c-3 -5 -11 -10 -16 -10 -6 0 -7 5 -4
10 3 6 11 10 16 10 6 0 7 -4 4 -10z m2203 -28 c6 -18 -15 -14 -22 4 -4 10 -1
14 6 12 6 -2 14 -10 16 -16z m-2219 -102 c0 -13 -1 -13 -6 0 -3 8 -9 17 -12
20 -6 5 -31 52 -39 75 -2 6 10 -10 27 -35 17 -25 31 -52 30 -60z m2171 90 c0
-5 -5 -10 -11 -10 -5 0 -7 5 -4 10 3 6 8 10 11 10 2 0 4 -4 4 -10z m-1755 -10
c8 -13 -22 -43 -35 -35 -6 4 -5 13 3 25 13 22 23 25 32 10z m1615 -10 c0 -5
-2 -10 -4 -10 -3 0 -8 5 -11 10 -3 6 -1 10 4 10 6 0 11 -4 11 -10z m193 3
c-18 -7 -16 -23 2 -23 9 0 12 -6 9 -15 -5 -12 -9 -12 -30 3 -32 23 -30 42 4
41 15 0 21 -3 15 -6z m-273 -7 c0 -3 -4 -8 -10 -11 -5 -3 -10 -1 -10 4 0 6 5
11 10 11 6 0 10 -2 10 -4z m-1798 -38 c-6 -8 -9 -26 -8 -41 2 -18 -1 -27 -10
-27 -8 0 -14 -7 -14 -15 0 -19 9 -19 32 2 25 22 29 14 13 -24 -9 -22 -21 -33
-35 -33 -11 0 -20 4 -20 9 0 5 -8 11 -18 14 -22 5 -37 47 -17 47 7 0 18 6 24
14 9 11 9 15 -2 18 -29 6 -2 43 33 46 26 2 31 0 22 -10z m1913 2 c4 -6 -5 -10
-20 -10 -15 0 -24 4 -20 10 3 6 12 10 20 10 8 0 17 -4 20 -10z m-810 -30 c-3
-5 -10 -10 -16 -10 -5 0 -9 5 -9 10 0 6 7 10 16 10 8 0 12 -4 9 -10z m-822
-41 c-6 -32 -7 -33 -13 -9 -4 14 -2 31 3 38 15 19 18 9 10 -29z m-408 -31 c8
-28 13 -53 11 -55 -8 -8 -26 25 -34 65 -14 60 4 52 23 -10z m-169 -73 c4 -8
10 -12 15 -9 5 3 9 2 9 -1 0 -9 -30 -38 -34 -34 -12 15 -24 47 -19 53 11 10
23 7 29 -9z m254 0 c10 -12 10 -15 -3 -15 -8 0 -17 7 -21 15 -3 8 -2 15 3 15
5 0 14 -7 21 -15z m-26 -91 c4 -13 1 -26 -8 -33 -12 -10 -17 -3 -30 43 -9 30
-16 57 -16 61 0 12 47 -50 54 -71z m-364 12 c0 -3 -4 -8 -10 -11 -5 -3 -10 -1
-10 4 0 6 5 11 10 11 6 0 10 -2 10 -4z m77 -2 c-3 -3 -12 -4 -19 -1 -8 3 -5 6
6 6 11 1 17 -2 13 -5z m288 -74 c3 -5 1 -10 -4 -10 -6 0 -11 5 -11 10 0 6 2
10 4 10 3 0 8 -4 11 -10z m-1010 -20 c3 -5 2 -10 -4 -10 -5 0 -13 5 -16 10 -3
6 -2 10 4 10 5 0 13 -4 16 -10z m1025 -42 c15 -21 17 -28 6 -19 -16 13 -41 51
-33 51 2 0 14 -15 27 -32z m1030 -8 c0 -23 -10 -26 -28 -8 -9 9 -12 9 -12 -2
0 -23 -17 -43 -29 -36 -13 8 36 66 56 66 7 0 13 -9 13 -20z m-1781 -76 c12
-19 19 -39 16 -44 -3 -5 5 -25 17 -45 l21 -37 -23 7 c-24 8 -24 8 3 -24 31
-37 34 -63 11 -85 -28 -29 -51 -37 -78 -27 -21 9 -24 15 -22 50 3 39 2 41 -27
41 -25 0 -28 2 -17 15 7 9 21 13 31 10 11 -4 19 -1 19 6 0 7 -10 9 -30 6 -26
-6 -32 -2 -45 22 -8 16 -20 31 -27 34 -7 3 -3 6 9 6 12 1 23 6 25 13 5 14 51
4 70 -15 7 -8 23 -19 36 -26 l22 -12 -22 37 -21 36 24 -7 24 -7 -26 24 c-32
28 -44 58 -25 58 8 0 24 -16 35 -36z m-89 -9 c0 -8 -7 -15 -15 -15 -16 0 -20
12 -8 23 11 12 23 8 23 -8z m1770 -89 c0 -3 -4 -8 -10 -11 -5 -3 -10 -1 -10 4
0 6 5 11 10 11 6 0 10 -2 10 -4z m-1070 -42 c0 -8 -5 -12 -10 -9 -6 4 -8 11
-5 16 9 14 15 11 15 -7z m591 -16 l23 -33 -27 24 c-15 14 -27 28 -27 33 0 15
8 8 31 -24z m609 -18 c0 -5 -4 -10 -10 -10 -5 0 -10 5 -10 10 0 6 5 10 10 10
6 0 10 -4 10 -10z m-1330 -14 c0 -2 -7 -7 -16 -10 -8 -3 -12 -2 -9 4 6 10 25
14 25 6z m1275 -47 c-2 -24 -15 -38 -15 -16 0 9 -7 20 -17 25 -13 8 -12 10 9
10 18 0 24 -6 23 -19z m-1612 -33 c3 -8 3 -17 0 -20 -7 -7 -33 13 -33 25 0 15
27 10 33 -5z m1158 -134 c-1 -64 -5 -120 -10 -125 -4 -4 -20 -3 -34 2 -23 9
-27 16 -27 52 0 37 34 191 47 212 15 24 25 -36 24 -141z m-1001 103 c19 -23 8
-26 -20 -5 -19 15 -21 20 -9 20 9 0 22 -7 29 -15z m-259 -43 c12 -31 -5 -28
-20 4 -9 20 -9 25 0 22 7 -2 16 -14 20 -26z m1559 3 c0 -17 -4 -23 -15 -19
-11 5 -12 11 -4 25 13 26 19 24 19 -6z m-1379 -66 c-12 -12 -25 -18 -28 -15
-4 3 2 13 13 21 29 22 41 18 15 -6z m1199 12 c0 -5 -7 -12 -16 -15 -14 -5 -15
-4 -4 9 14 17 20 19 20 6z m-1290 -71 c0 -5 -18 -19 -40 -30 -23 -12 -97 -57
-166 -100 -126 -81 -139 -87 -148 -71 -7 10 85 71 229 153 100 57 125 67 125
48z m895 -183 c-78 -78 -193 -198 -255 -267 -62 -69 -117 -126 -122 -128 -11
-5 37 97 58 123 36 43 225 236 321 328 76 73 105 95 121 91 16 -5 -4 -29 -123
-147z m-46 61 c-182 -166 -204 -180 -105 -64 53 62 158 146 182 146 8 0 -27
-37 -77 -82z m385 -63 c3 -9 1 -24 -5 -33 -11 -18 -69 -56 -75 -50 -5 6 56 98
65 98 5 0 12 -7 15 -15z m-101 -135 c-28 -32 -33 -35 -33 -21 0 14 44 60 52
55 4 -3 -4 -18 -19 -34z m-25 -132 c-34 -57 -73 -125 -88 -153 -79 -147 -105
-185 -128 -185 -13 0 -20 4 -17 10 4 6 11 8 16 5 5 -4 9 -1 9 4 0 13 -3 13
-24 5 -9 -3 -16 -15 -16 -26 0 -15 5 -19 20 -15 22 6 26 -8 10 -33 -7 -12 -13
-13 -28 -3 -15 9 -21 8 -33 -8 -7 -10 -20 -19 -28 -19 -12 0 -12 -3 -3 -12 9
-9 15 -9 20 -2 4 5 17 11 30 11 20 2 21 -1 11 -20 -40 -76 -94 -158 -97 -148
-2 7 1 18 7 24 14 14 14 37 1 37 -19 0 -60 -55 -54 -72 3 -12 0 -18 -9 -18 -8
0 -17 -9 -20 -20 -3 -12 -14 -20 -29 -21 -17 -1 -18 -3 -5 -6 9 -2 17 -8 17
-12 0 -9 -40 -63 -53 -72 -15 -11 2 -29 26 -29 17 0 14 -4 -13 -16 -61 -27
-65 -31 -66 -55 0 -13 -10 -46 -22 -73 -12 -27 -22 -52 -22 -57 0 -5 -16 1
-35 13 -28 16 -34 25 -29 40 9 29 191 354 228 408 17 25 39 61 50 80 46 85
190 293 205 297 10 2 25 18 35 34 9 16 23 29 29 29 7 0 24 15 39 33 15 17 48
58 73 90 26 31 49 57 51 57 1 0 -25 -46 -58 -102z m232 92 c0 -5 -2 -10 -4
-10 -3 0 -8 5 -11 10 -3 6 -1 10 4 10 6 0 11 -4 11 -10z m-42 -66 c-1 -19 5
-38 15 -48 19 -20 22 -36 6 -36 -5 0 -8 4 -5 8 8 13 -32 42 -49 36 -8 -4 -15
-14 -15 -24 0 -10 -7 -20 -15 -24 -8 -3 -15 -17 -15 -31 0 -14 -9 -34 -20 -45
-11 -11 -20 -25 -20 -30 0 -6 -5 -16 -10 -23 -6 -7 -19 -23 -30 -37 l-20 -25
17 40 c10 22 46 98 81 169 46 92 67 125 73 115 5 -8 8 -28 7 -45z m-1108 -41
c-25 -21 -74 -64 -110 -97 -89 -80 -145 -126 -156 -126 -22 0 172 174 261 233
55 37 56 34 5 -10z m-300 -28 c-18 -19 -36 -32 -39 -29 -6 5 57 64 68 64 3 0
-10 -16 -29 -35z m1404 -30 c3 -9 0 -15 -9 -15 -8 0 -15 7 -15 15 0 8 4 15 9
15 5 0 11 -7 15 -15z m-1694 -78 c0 -2 -10 -12 -22 -23 l-23 -19 19 23 c18 21
26 27 26 19z m1523 -397 c-14 -41 -28 -77 -32 -80 -3 -3 -7 -14 -9 -25 -2 -11
-19 -56 -37 -100 -36 -85 -57 -141 -81 -217 -8 -27 -19 -48 -24 -48 -6 0 -10
-9 -10 -20 0 -12 -7 -35 -16 -52 -9 -17 -13 -39 -11 -50 3 -11 -2 -27 -14 -39
-10 -10 -19 -30 -19 -44 0 -14 -5 -25 -11 -25 -18 0 -59 37 -51 45 4 5 2 5 -4
2 -6 -4 -24 5 -40 18 -16 14 -35 25 -42 25 -29 0 -22 35 28 142 158 337 168
358 184 352 11 -4 16 -1 16 11 0 9 -4 13 -10 10 -14 -9 -12 5 5 35 11 19 14
21 15 8 0 -10 5 -18 11 -18 5 0 7 5 4 10 -9 15 12 12 46 -6 17 -8 36 -13 42
-10 7 2 2 8 -10 11 -13 4 -20 11 -17 16 3 5 14 5 25 -1 16 -9 19 -7 19 8 0 10
9 28 20 40 12 12 18 22 15 22 -3 0 2 14 10 31 27 50 26 29 -2 -51z m-137 -16
c-21 -20 -28 -17 -16 6 6 11 15 18 21 15 5 -4 3 -12 -5 -21z m97 5 c-6 -6 -18
-6 -28 -3 -18 7 -18 8 1 14 23 9 39 1 27 -11z m-62 -26 c-8 -15 -10 -15 -11
-2 0 17 10 32 18 25 2 -3 -1 -13 -7 -23z m-316 -120 c-16 -27 -30 -52 -33 -57
-2 -4 -8 -2 -13 5 -5 8 -1 18 11 26 10 7 21 27 25 43 4 17 13 30 22 30 12 0 9
-10 -12 -47z m-825 -84 c0 -13 -109 -146 -140 -172 -34 -28 -34 -14 0 28 16
21 30 41 30 44 0 3 13 20 28 36 16 17 36 42 46 57 17 26 36 29 36 7z m1994
-126 c10 -11 79 -33 101 -32 11 0 38 6 60 14 35 13 41 12 57 -2 10 -8 26 -13
38 -10 11 3 22 1 25 -4 3 -4 16 -5 28 0 12 4 35 11 51 15 27 7 28 6 16 -9 -8
-9 -32 -26 -54 -37 -39 -20 -46 -20 -131 -8 -50 6 -100 11 -110 10 -64 -7
-115 17 -115 55 0 15 21 20 34 8z m296 -669 c0 -2 -12 -4 -27 -4 -21 0 -24 3
-14 9 13 8 41 5 41 -5z"/>
<path d="M168 3834 c-9 -8 3 -44 14 -44 6 0 8 7 4 15 -3 9 0 15 10 15 8 0 12
5 9 10 -7 11 -28 13 -37 4z"/>
<path d="M120 3755 c0 -18 56 -49 76 -41 8 3 14 11 14 18 0 10 -2 10 -9 -1
-11 -18 -31 -5 -31 20 0 14 -7 19 -25 19 -15 0 -25 -6 -25 -15z"/>
<path d="M4150 3900 c0 -5 5 -10 10 -10 6 0 10 5 10 10 0 6 -4 10 -10 10 -5 0
-10 -4 -10 -10z"/>
<path d="M4020 3850 c0 -5 5 -10 10 -10 6 0 10 5 10 10 0 6 -4 10 -10 10 -5 0
-10 -4 -10 -10z"/>
<path d="M4410 3839 c0 -5 5 -7 10 -4 6 3 10 8 10 11 0 2 -4 4 -10 4 -5 0 -10
-5 -10 -11z"/>
<path d="M3995 3830 c3 -5 8 -10 11 -10 2 0 4 5 4 10 0 6 -5 10 -11 10 -5 0
-7 -4 -4 -10z"/>
<path d="M4357 3806 c-6 -16 2 -28 14 -20 12 7 11 34 0 34 -5 0 -11 -6 -14
-14z"/>
<path d="M4250 3794 c0 -8 5 -12 10 -9 6 4 8 11 5 16 -9 14 -15 11 -15 -7z"/>
<path d="M3660 3721 c0 -5 7 -11 15 -15 8 -3 15 -1 15 3 0 5 -7 11 -15 15 -8
3 -15 1 -15 -3z"/>
<path d="M3530 3650 c0 -5 5 -10 10 -10 6 0 10 5 10 10 0 6 -4 10 -10 10 -5 0
-10 -4 -10 -10z"/>
<path d="M4566 3822 c-7 -12 22 -38 31 -28 4 3 0 14 -9 22 -9 10 -18 12 -22 6z"/>
<path d="M3590 3551 c0 -12 5 -21 10 -21 6 0 10 6 10 14 0 8 -4 18 -10 21 -5
3 -10 -3 -10 -14z"/>
<path d="M3652 3513 c9 -10 13 -24 11 -30 -3 -7 2 -13 11 -13 19 0 21 31 4 48
-7 7 -19 12 -27 12 -12 0 -12 -3 1 -17z"/>
<path d="M1480 3350 c0 -11 7 -20 15 -20 8 0 15 9 15 20 0 11 -7 20 -15 20 -8
0 -15 -9 -15 -20z"/>
<path d="M3045 3269 c-11 -17 1 -21 15 -4 8 9 8 15 2 15 -6 0 -14 -5 -17 -11z"/>
<path d="M1336 3154 c-8 -22 -8 -24 8 -24 21 0 28 16 12 29 -11 9 -15 8 -20
-5z"/>
<path d="M1367 1333 c-4 -3 -7 -11 -7 -17 0 -6 5 -5 12 2 6 6 9 14 7 17 -3 3
-9 2 -12 -2z"/>
<path d="M1270 1139 c0 -5 5 -7 10 -4 6 3 10 8 10 11 0 2 -4 4 -10 4 -5 0 -10
-5 -10 -11z"/>
<path d="M979 753 c-13 -16 -12 -17 4 -4 9 7 17 15 17 17 0 8 -8 3 -21 -13z"/>
<path d="M1417 782 c-3 -15 -17 -40 -32 -56 -14 -15 -23 -31 -20 -35 9 -9 64
61 65 82 0 9 5 17 10 17 6 0 10 5 10 10 0 23 -28 8 -33 -18z"/>
<path d="M1304 741 c2 -44 16 -50 16 -8 0 21 -4 37 -9 37 -5 0 -8 -13 -7 -29z"/>
<path d="M1366 647 c-22 -20 -36 -40 -32 -46 11 -17 36 -13 43 7 3 9 13 25 21
34 29 34 5 38 -32 5z"/>
<path d="M1280 600 c0 -5 5 -10 11 -10 5 0 7 5 4 10 -3 6 -8 10 -11 10 -2 0
-4 -4 -4 -10z"/>
<path d="M1320 570 c0 -5 5 -10 10 -10 6 0 10 5 10 10 0 6 -4 10 -10 10 -5 0
-10 -4 -10 -10z"/>
<path d="M1213 545 c-3 -9 -3 -18 0 -21 9 -9 27 6 27 22 0 19 -19 18 -27 -1z"/>
<path d="M1300 490 c6 -11 12 -20 13 -20 2 0 3 9 4 20 1 12 -4 20 -13 20 -12
0 -12 -4 -4 -20z"/>
<path d="M2520 661 c0 -5 5 -13 10 -16 6 -3 10 -2 10 4 0 5 -4 13 -10 16 -5 3
-10 2 -10 -4z"/>
<path d="M2244 3697 c-26 -30 -29 -65 -10 -109 5 -11 2 -17 -11 -20 -22 -5 79
-45 137 -54 50 -8 51 4 6 44 -35 30 -43 63 -23 90 7 8 5 12 -7 12 -10 0 -19
11 -22 29 -9 42 -38 46 -70 8z"/>
<path d="M4275 3700 c3 -5 14 -10 23 -10 15 0 15 2 2 10 -20 13 -33 13 -25 0z"/>
<path d="M4310 3645 c0 -8 5 -15 10 -15 6 0 10 5 10 10 0 7 7 7 21 0 11 -7 23
-9 26 -6 6 5 -40 26 -58 26 -5 0 -9 -7 -9 -15z"/>
<path d="M2360 3631 c-11 -8 -12 -13 -3 -22 13 -13 70 1 66 17 -3 13 -45 16
-63 5z"/>
<path d="M71 3616 c-9 -10 -8 -15 3 -19 16 -7 26 1 26 20 0 17 -14 17 -29 -1z"/>
<path d="M4375 3610 c-3 -5 -2 -10 4 -10 5 0 13 5 16 10 3 6 2 10 -4 10 -5 0
-13 -4 -16 -10z"/>
<path d="M639 3580 l-24 -20 26 9 c20 7 30 6 43 -7 15 -15 16 -15 16 5 0 11
-7 24 -16 27 -21 8 -19 9 -45 -14z"/>
<path d="M4418 3593 c7 -3 16 -2 19 1 4 3 -2 6 -13 5 -11 0 -14 -3 -6 -6z"/>
<path d="M2080 3570 c-9 -6 -10 -10 -3 -10 6 0 15 5 18 10 8 12 4 12 -15 0z"/>
<path d="M4438 3573 c7 -3 16 -2 19 1 4 3 -2 6 -13 5 -11 0 -14 -3 -6 -6z"/>
<path d="M4720 3550 c0 -5 5 -10 11 -10 5 0 7 5 4 10 -3 6 -8 10 -11 10 -2 0
-4 -4 -4 -10z"/>
<path d="M150 3540 c0 -5 7 -10 16 -10 8 0 12 5 9 10 -3 6 -10 10 -16 10 -5 0
-9 -4 -9 -10z"/>
<path d="M4640 3530 c0 -5 5 -10 10 -10 6 0 10 5 10 10 0 6 -4 10 -10 10 -5 0
-10 -4 -10 -10z"/>
<path d="M4765 3520 c3 -5 13 -10 21 -10 8 0 14 5 14 10 0 6 -9 10 -21 10 -11
0 -17 -4 -14 -10z"/>
<path d="M4376 3499 c-11 -16 -21 -20 -40 -15 -20 5 -24 3 -20 -9 3 -8 11 -12
17 -8 5 3 16 -2 24 -12 13 -18 13 -18 28 1 13 17 21 64 11 64 -3 0 -12 -10
-20 -21z"/>
<path d="M240 3500 c0 -5 5 -10 10 -10 6 0 10 5 10 10 0 6 -4 10 -10 10 -5 0
-10 -4 -10 -10z"/>
<path d="M500 3490 c-9 -6 -10 -10 -3 -10 6 0 15 5 18 10 8 12 4 12 -15 0z"/>
<path d="M535 3479 c-8 -12 -5 -16 15 -19 34 -5 42 -1 26 15 -17 18 -32 19
-41 4z"/>
<path d="M670 3460 c0 -5 -9 -12 -20 -15 -24 -8 -25 -18 -4 -40 15 -14 18 -14
38 10 21 24 23 25 38 8 8 -10 18 -26 21 -35 6 -16 27 -26 27 -14 0 19 -62 92
-79 93 -12 1 -21 -2 -21 -7z"/>
<path d="M1717 3428 c11 -13 25 -32 31 -43 9 -16 11 -17 12 -3 0 9 6 19 13 21
8 4 6 6 -4 6 -9 1 -24 10 -34 21 -10 11 -23 20 -28 20 -6 0 -1 -10 10 -22z"/>
<path d="M4425 3440 c11 -5 27 -9 35 -9 13 -1 13 0 0 9 -8 5 -24 9 -35 9 l-20
0 20 -9z"/>
<path d="M277 3396 c-10 -26 -10 -26 27 -26 21 0 36 6 40 15 3 9 0 15 -8 15
-8 0 -16 -6 -19 -12 -3 -9 -9 -7 -19 6 -14 17 -15 18 -21 2z"/>
<path d="M4405 3380 c96 -10 193 -11 178 -2 -7 4 -66 8 -130 9 -106 0 -111 0
-48 -7z"/>
<path d="M270 3335 c7 -9 15 -13 17 -11 7 7 -7 26 -19 26 -6 0 -6 -6 2 -15z"/>
<path d="M1910 3335 c7 -9 15 -13 17 -11 7 7 -7 26 -19 26 -6 0 -6 -6 2 -15z"/>
<path d="M4295 3330 c-16 -7 -12 -9 18 -9 23 -1 36 3 32 9 -7 12 -23 12 -50 0z"/>
<path d="M360 3320 c0 -5 9 -10 21 -10 11 0 17 5 14 10 -3 6 -13 10 -21 10 -8
0 -14 -4 -14 -10z"/>
<path d="M1789 3302 c5 -9 19 -26 32 -37 19 -16 18 -13 -5 18 -30 39 -43 49
-27 19z"/>
<path d="M3826 3215 c3 -60 7 -111 10 -114 8 -8 2 173 -6 199 -6 15 -7 -19 -4
-85z"/>
<path d="M4205 3311 c-6 -5 -33 -16 -61 -25 -55 -18 -144 -72 -144 -87 0 -5
-6 -9 -13 -9 -7 0 -36 -24 -65 -53 l-52 -53 0 -141 c0 -92 4 -143 11 -145 6
-2 12 -30 13 -62 2 -47 8 -63 25 -77 12 -10 29 -15 38 -12 11 4 14 3 9 -6 -8
-12 10 -41 25 -41 5 0 9 6 9 14 0 27 48 27 102 0 29 -15 54 -27 55 -28 1 -1 0
-11 -3 -22 -7 -28 -89 -52 -117 -34 -17 10 -22 10 -32 -4 -7 -9 -20 -16 -29
-16 -13 0 -15 -4 -6 -19 9 -18 22 -20 116 -20 58 0 109 -3 112 -5 4 -3 38 -6
74 -7 37 -2 64 -7 61 -12 -3 -5 3 -14 13 -21 15 -12 16 -17 5 -44 -15 -36 -29
-40 -146 -36 -129 3 -139 5 -153 17 -11 8 -11 5 -1 -17 7 -15 27 -34 43 -42
l31 -14 -29 5 c-21 5 -27 3 -23 -7 21 -53 56 -146 61 -160 3 -9 22 -28 43 -41
21 -13 94 -59 163 -103 172 -107 366 -235 418 -274 l42 -32 0 545 0 545 -30 6
c-16 3 -30 11 -30 18 0 7 14 19 30 26 l30 14 0 160 0 161 -27 23 c-25 22 -28
22 -34 6 -4 -9 -5 -20 -2 -24 2 -5 0 -8 -5 -8 -5 0 -15 -25 -22 -55 -7 -30
-15 -55 -18 -55 -3 0 -11 8 -18 18 -11 14 -13 1 -14 -91 l0 -109 30 -11 c18
-7 30 -19 30 -29 0 -22 -13 -23 -30 -3 -7 8 -25 15 -41 15 -26 0 -29 3 -29 35
0 19 -4 35 -8 35 -5 0 -7 -13 -4 -29 5 -35 -13 -44 -61 -30 -20 5 -39 9 -44 8
-4 -1 -32 -1 -60 0 l-53 1 0 40 c0 39 -1 40 -36 40 -31 0 -35 -3 -29 -20 3
-11 2 -20 -4 -20 -5 0 -11 -7 -13 -16 -3 -13 -6 -12 -24 5 -12 11 -25 17 -28
14 -3 -4 -6 6 -6 20 0 24 -4 27 -35 27 -32 0 -35 -2 -35 -31 0 -20 -4 -29 -12
-27 -8 3 -14 28 -16 66 l-3 62 55 0 c30 0 58 5 61 10 3 6 1 10 -4 10 -7 0 -11
30 -11 79 0 44 -4 82 -9 85 -5 3 -23 3 -40 0 -23 -5 -30 -11 -27 -23 3 -9 8
-46 12 -83 6 -65 5 -68 -15 -68 -19 0 -21 5 -21 69 0 38 -3 83 -6 100 -6 27
-4 31 15 31 12 0 48 11 81 25 39 16 78 25 114 25 30 0 57 3 59 8 7 10 -158 4
-210 -8 -23 -6 -50 -10 -59 -10 -33 0 0 17 59 29 31 7 55 17 52 22 -8 11 -38
12 -50 0z m558 -660 c-5 -20 -52 -35 -78 -25 -27 11 -16 20 33 31 26 6 48 11
49 12 0 0 -1 -8 -4 -18z m-753 -1 c0 -5 -4 -10 -9 -10 -6 0 -13 5 -16 10 -3 6
1 10 9 10 9 0 16 -4 16 -10z m640 0 c13 -9 13 -10 0 -10 -8 0 -22 5 -30 10
-13 9 -13 10 0 10 8 0 22 -5 30 -10z m-285 -170 c3 -5 -1 -10 -9 -10 -8 0 -18
5 -21 10 -3 6 1 10 9 10 8 0 18 -4 21 -10z m34 -89 c9 -6 10 -11 2 -15 -13 -8
-31 1 -31 15 0 11 11 11 29 0z m244 -246 c1 -5 -6 -11 -15 -13 -11 -2 -18 3
-18 13 0 17 30 18 33 0z m57 -205 c0 -5 -2 -10 -4 -10 -3 0 -8 5 -11 10 -3 6
-1 10 4 10 6 0 11 -4 11 -10z"/>
<path d="M2131 3210 c-24 -11 -41 -23 -38 -26 3 -3 27 6 54 20 57 30 46 34
-16 6z"/>
<path d="M410 3210 c0 -5 5 -10 10 -10 6 0 10 5 10 10 0 6 -4 10 -10 10 -5 0
-10 -4 -10 -10z"/>
<path d="M624 3202 c5 -8 -1 -15 -15 -20 -19 -7 -20 -10 -6 -15 19 -7 47 1 47
13 0 4 -8 14 -17 21 -12 10 -15 10 -9 1z"/>
<path d="M4310 3176 c0 -16 7 -26 23 -30 21 -6 21 -7 5 -20 -22 -16 -23 -26
-3 -26 10 0 15 -11 15 -35 0 -30 3 -35 24 -35 25 0 25 8 17 153 -1 13 -10 17
-41 17 -35 0 -40 -3 -40 -24z"/>
<path d="M4602 3144 c2 -22 7 -37 13 -34 14 7 11 63 -4 68 -9 3 -11 -7 -9 -34z"/>
<path d="M1576 3025 c-3 -10 1 -15 13 -15 10 0 21 7 25 15 3 10 -1 15 -13 15
-10 0 -21 -7 -25 -15z"/>
<path d="M1708 3013 c7 -3 16 -2 19 1 4 3 -2 6 -13 5 -11 0 -14 -3 -6 -6z"/>
<path d="M1885 3000 c-3 -5 -1 -10 4 -10 6 0 11 5 11 10 0 6 -2 10 -4 10 -3 0
-8 -4 -11 -10z"/>
<path d="M1568 2867 c-14 -10 -14 -13 9 -30 14 -12 22 -25 18 -35 -4 -12 -3
-13 10 -2 19 16 19 30 -3 57 -13 17 -20 19 -34 10z"/>
<path d="M418 2703 c7 -3 16 -2 19 1 4 3 -2 6 -13 5 -11 0 -14 -3 -6 -6z"/>
<path d="M430 2651 c0 -5 6 -12 13 -15 8 -3 7 -8 -6 -16 -9 -6 -15 -16 -11
-21 3 -5 14 1 23 13 15 18 16 24 5 35 -15 15 -24 17 -24 4z"/>
<path d="M324 2628 c1 -7 5 -19 10 -27 7 -11 10 -11 18 3 5 9 6 21 3 26 -9 14
-34 12 -31 -2z"/>
<path d="M3900 2610 c0 -5 5 -10 10 -10 6 0 10 5 10 10 0 6 -4 10 -10 10 -5 0
-10 -4 -10 -10z"/>
<path d="M780 2230 c-9 -6 -10 -10 -3 -10 6 0 15 5 18 10 8 12 4 12 -15 0z"/>
<path d="M4163 2035 c4 -9 7 -21 7 -26 0 -4 26 -27 58 -50 31 -24 59 -45 62
-49 3 -3 39 -27 80 -53 41 -27 88 -58 105 -70 16 -12 57 -42 90 -66 64 -48
192 -148 213 -168 20 -19 22 -17 22 25 0 36 -4 40 -128 132 -70 52 -160 117
-199 144 -40 27 -73 53 -73 58 0 5 5 6 10 3 6 -3 10 -1 10 5 0 7 -8 9 -20 5
-12 -4 -20 -2 -20 5 0 6 -4 9 -10 5 -5 -3 -46 17 -91 45 -119 74 -123 76 -116
55z"/>
<path d="M4200 1904 c0 -10 6 -54 14 -98 29 -166 36 -222 38 -277 1 -54 3 -59
41 -90 22 -19 105 -103 184 -188 150 -161 149 -160 111 -205 -5 -6 -15 -20
-23 -31 -13 -20 -14 -20 -40 5 -36 33 -77 98 -70 110 4 6 16 10 27 10 20 0 21
1 3 20 -19 21 -45 27 -45 10 0 -5 7 -10 16 -10 8 0 12 -4 9 -10 -15 -24 -46
-5 -103 60 -34 39 -68 80 -76 92 -22 32 -30 16 -34 -68 -5 -84 -16 -63 136
-260 l73 -95 -46 -55 c-26 -30 -49 -54 -53 -54 -14 0 -62 55 -62 72 0 10 -4
18 -9 18 -6 0 -20 18 -32 40 -13 22 -26 40 -30 40 -4 0 -13 -26 -19 -57 -25
-131 -65 -275 -105 -383 -57 -156 -193 -417 -248 -478 l-20 -22 481 0 482 0 0
728 0 727 -38 32 c-95 82 -367 294 -509 397 -43 30 -53 34 -53 20z"/>
<path d="M2310 1800 c0 -5 5 -10 11 -10 5 0 7 5 4 10 -3 6 -8 10 -11 10 -2 0
-4 -4 -4 -10z"/>
<path d="M2290 1466 c0 -31 57 -229 73 -256 l22 -35 3 52 c2 37 -3 63 -17 92
-12 22 -21 47 -21 56 0 22 -38 95 -50 95 -6 0 -10 -2 -10 -4z"/>
<path d="M2758 1398 c-3 -35 -3 -68 -1 -75 5 -14 42 -28 50 -19 9 8 -20 136
-33 147 -9 7 -13 -6 -16 -53z"/>
<path d="M4415 1271 c-3 -5 -1 -12 5 -16 5 -3 10 1 10 9 0 18 -6 21 -15 7z"/>
<path d="M4375 1260 c3 -5 11 -10 16 -10 6 0 7 5 4 10 -3 6 -11 10 -16 10 -6
0 -7 -4 -4 -10z"/>
<path d="M2402 1105 c0 -16 2 -22 5 -12 2 9 2 23 0 30 -3 6 -5 -1 -5 -18z"/>
<path d="M3178 903 c7 -3 16 -2 19 1 4 3 -2 6 -13 5 -11 0 -14 -3 -6 -6z"/>
<path d="M3088 883 c6 -2 18 -2 25 0 6 3 1 5 -13 5 -14 0 -19 -2 -12 -5z"/>
<path d="M3161 454 c0 -11 3 -14 6 -6 3 7 2 16 -1 19 -3 4 -6 -2 -5 -13z"/>
<path d="M3191 324 c0 -11 3 -14 6 -6 3 7 2 16 -1 19 -3 4 -6 -2 -5 -13z"/>
<path d="M3201 274 c0 -11 3 -14 6 -6 3 7 2 16 -1 19 -3 4 -6 -2 -5 -13z"/>
<path d="M3212 230 c0 -14 2 -19 5 -12 2 6 2 18 0 25 -3 6 -5 1 -5 -13z"/>
</g>
</svg>
